<?xml version="1.0" encoding="utf-8"?>
<!-- Generator: Adobe Illustrator 24.1.0, SVG Export Plug-In . SVG Version: 6.00 Build 0)  -->
<svg version="1.1" id="Layer_1" xmlns="http://www.w3.org/2000/svg" xmlns:xlink="http://www.w3.org/1999/xlink" x="0px" y="0px"
	 viewBox="0 0 375 293" style="enable-background:new 0 0 375 293;" xml:space="preserve">
<style type="text/css">
	.st0{clip-path:url(#SVGID_2_);}
	.st1{clip-path:url(#SVGID_4_);}
</style>
<g>
	<g>
		<g>
			<g>
				<defs>
					<path id="SVGID_1_" d="M372,144.6v-7.7c0-4.2-3.6-7.7-7.7-7.7V43.9c0-4.2-3.6-7.7-7.7-7.7H318v-7.7c0-4.2-3.6-7.7-7.7-7.7
						s-7.7,3.6-7.7,7.7v7.7h-23.1c-4.2,0-7.7,3.6-7.7,7.7V75v31v23.3h-15.5v-31c0-4.2-3.6-7.7-7.7-7.7h-7.7V59.5
						c0-4.2-3.6-7.7-7.7-7.7h-38.5H156h-38.5H79c-4.2,0-7.7,3.6-7.7,7.7v31.1H56c-4.2,0-7.7,3.6-7.7,7.7v24.2L37.1,115
						c-1.3-0.9-2.9-1.3-4.2-1.3H9.8c-4.2,0-7.7,3.6-7.7,7.7v23.3c0,0.3,0,0.7,0,0.9c0.9,8.2,5.3,20.5,10.2,29.5
						c-2.4,1.3-4.9,2.6-7,4.4c-3.6,2.4-4.2,7.4-1.7,10.7c2.4,3.6,7.3,4.2,10.7,1.7c3.3-2.4,6.9-4.2,10.6-5.3c0.4,0,0.9-0.3,1.1-0.3
						c8.7-2.4,18-1.7,26.2,2c0.3,0,0.4,0.3,0.7,0.3c1.1,0.4,2.1,1.1,3.2,1.7l1.6,0.9c8.3,5,18,7.7,27.5,7.7c9.7,0,19.2-2.6,27.5-7.7
						l3.7-2.4c11.9-7.3,27.4-7.3,39.2,0l3.7,2.4c16.8,10.3,38.4,10.3,55.3,0l4-2.4c11.9-7.3,27.4-7.3,39.2,0l3.7,2.4
						c16.8,10.3,38.4,10.3,55.3,0l1.6-0.9c1.1-0.7,2-1.1,3.2-1.7c0.3,0,0.4-0.3,0.7-0.3c7.9-3.7,17.2-4.4,25.9-2
						c0.4,0.3,0.9,0.3,1.1,0.3c3.7,1.1,7.3,2.9,10.6,5.3c3.6,2.4,8.2,1.7,10.7-1.7c2.4-3.6,1.7-8.3-1.7-10.7c-2.1-1.7-4.6-3.2-7-4.4
						c4.9-9.3,9.3-21.3,10.2-29.5C372,145.1,372,145,372,144.6z M319.2,172.8c-0.3,0-0.4,0.3-0.7,0.3c-1.1,0.4-2.4,0.9-3.6,1.6
						c-0.3,0.3-0.4,0.3-0.9,0.4c-1.3,0.7-2.6,1.3-4,2.1l-1.6,0.9c-11.9,7.4-27.4,7.4-39.2,0l-4-2.4c-16.8-10.3-38.4-10.3-55.3,0
						l-4,2.4c-11.9,7.4-27.4,7.4-39.2,0l-4-2.4c-16.8-10.3-38.4-10.3-55.3,0l-4,2.4c-11.9,7.4-27.4,7.4-39.2,0l-1.6-0.9
						c-1.1-0.7-2.1-1.3-3.3-1.7c-0.7-0.3-1.1-0.7-1.7-0.9c-0.4-0.3-1.1-0.4-1.6-0.7c-0.9-0.4-1.7-0.7-2.6-1.1
						c-0.3,0-0.4-0.3-0.7-0.3c-1.3-0.4-2.6-0.9-4.2-1.3c-0.3,0-0.3,0-0.4,0c-7.3-2-15-2.1-22.2-0.9c-4.2-7-8.7-19.2-9.7-26.2v-15.2
						h13l21.2,14.3l0,0l0,0c0.4,0.3,0.7,0.4,1.1,0.7c0.3,0,0.3,0.3,0.4,0.3c0.3,0.3,0.7,0.3,0.9,0.3c0.3,0,0.3,0,0.4,0
						c0.4,0,0.9,0.3,1.3,0.3H93h38.5H170h38.5H247h30.8H355c-1.1,7-5.4,18.8-9.7,25.8C337.6,168.3,327.9,169.2,319.2,172.8z
						 M87.8,66.8h22.1V91H95.1h-7.3C87.8,91,87.8,66.8,87.8,66.8z M103.3,104.2h14.8h7.3v24.2h-22.1L103.3,104.2L103.3,104.2z
						 M140.7,104.2h14.8h7.3v24.2h-22.1V104.2L140.7,104.2z M178.2,104.2h16h8.2v24.2h-24.2V104.2z M242.1,128.5h-24.2v-24.2h16h8.2
						V128.5z M224.5,91h-14.8h-7.3V66.8h22.1V91L224.5,91z M187,91h-16h-8.2V66.8H187V91z M149.6,91h-16h-8.2V66.8h24.2V91z
						 M80,104.2h8.2v24.2H63.9v-24.2H80z M286.1,113h7.7c4.2,0,7.7-3.6,7.7-7.7c0-4.2-3.6-7.7-7.7-7.7h-7.7V82.1h23.1
						c4.2,0,7.7-3.6,7.7-7.7c0-4.2-3.6-7.7-7.7-7.7h-23.1V51.2h23.1h38.5v77.1h-61.6V113z M320.3,256.9c2.1,3.6,1.1,8.3-2.6,10.6
						l-1.6,0.9c-16.8,10.2-38.4,10.2-55,0l-3.7-2.4c-11.9-7.3-27.1-7.3-39,0l-3.7,2.4c-16.8,10.2-38.4,10.2-55,0L156,266
						c-11.9-7.3-27.1-7.3-39,0l-3.7,2.4c-8.3,5-17.9,7.7-27.5,7.7c-9.5,0-19.2-2.6-27.5-7.7l-1.6-0.9c-3.6-2.1-4.9-7-2.6-10.6
						c2.3-3.6,6.9-4.9,10.6-2.6l1.6,0.9c11.9,7.3,27.1,7.3,39,0l3.7-2.4c16.8-10.2,38.4-10.2,55,0l3.7,2.4c11.9,7.3,27.1,7.3,39,0
						l3.7-2.4c16.8-10.2,38.4-10.2,55,0l3.7,2.4c11.9,7.3,27.1,7.3,39,0l1.6-0.9C313.4,252,318,253.1,320.3,256.9z M347.8,216.2
						c-0.3,4.2-3.6,7.7-7.7,7.7h-0.3c-7.3-0.3-15,1.7-21.3,5.4l-2.9,1.7c-1.1,0.7-2.4,1.1-3.7,1.1c-2.9,0-5.4-1.6-6.9-4
						c-1.1-1.7-1.3-4-0.9-6s2-3.7,3.7-4.9c0.3-0.3,0.4-0.3,0.7-0.4l2-1.1c8.3-5,18-7.9,27.9-7.9c0.7,0,1.6,0,2.1,0
						C344.7,208,348,211.7,347.8,216.2z M55.3,227.8c-6.2-3.7-13-5.7-20.9-5.4c-0.3,0-0.3,0-0.4,0c-4.2,0-7.4-3.3-7.7-7.4
						c-0.3-2,0.7-4,2-5.4c1.3-1.6,3.3-2.4,5.3-2.4c0.7,0,1.6,0,2.1,0c9.9,0,19.3,2.6,27.5,7.7l1.6,1.1c11.5,7,27.4,7,39,0l3.7-2.4
						c16.3-10.2,38.5-10.2,54.9,0l3.7,2.4c11.6,7,27.4,7,39,0l3.7-2.4c13.5-8.2,30.8-9.9,45.5-4.4c2,0.7,3.6,2,4.4,4
						c0.9,1.7,0.9,4,0.3,6c-1.3,4-6,6.2-9.9,4.6c-10.6-4-22.9-2.6-32.4,3.2l-3.7,2.4c-8.2,5-17.9,7.7-27.5,7.7
						c-9.9,0-19.2-2.6-27.5-7.7l-3.7-2.4c-11.6-7-27.5-7-39,0l-3.7,2.4c-16.5,10.2-38.5,9.9-54.9,0L55.3,227.8z M274.5,233.2
						c-1.3-1.7-1.7-3.7-1.3-5.7c0.7-4.2,4.9-7,8.7-6.4c4.2,0.7,7,4.6,6.4,8.7c-0.7,3.7-3.7,6.6-7.7,6.6c-0.4,0-0.9,0-1.1,0h-0.3
						C277.5,235.9,275.8,234.8,274.5,233.2z"/>
				</defs>
				<use xlink:href="#SVGID_1_"  style="overflow:visible;"/>
				<clipPath id="SVGID_2_">
					<use xlink:href="#SVGID_1_"  style="overflow:visible;"/>
				</clipPath>
				<g class="st0">
					<g>
						<g>
							<g>
								<defs>
									<rect id="SVGID_3_" x="-227" y="-274.6" width="825.9" height="1468.9"/>
								</defs>
								<use xlink:href="#SVGID_3_"  style="overflow:visible;"/>
								<clipPath id="SVGID_4_">
									<use xlink:href="#SVGID_3_"  style="overflow:visible;"/>
								</clipPath>
								<rect x="-9" y="9.5" class="st1" width="392" height="277.4"/>
							</g>
						</g>
					</g>
				</g>
			</g>
		</g>
	</g>
</g>
</svg>
