<?xml version="1.0" encoding="utf-8"?>
<!-- Generator: Adobe Illustrator 16.0.0, SVG Export Plug-In . SVG Version: 6.00 Build 0)  -->
<!DOCTYPE svg PUBLIC "-//W3C//DTD SVG 1.1//EN" "http://www.w3.org/Graphics/SVG/1.1/DTD/svg11.dtd">
<svg version="1.1" xmlns="http://www.w3.org/2000/svg" xmlns:xlink="http://www.w3.org/1999/xlink" x="0px" y="0px" width="90px"
	 height="75.667px" viewBox="0 0 90 75.667" enable-background="new 0 0 90 75.667" xml:space="preserve">
<g id="Layer_1">
</g>
<g id="Layer_2">
	<g>
		<path fill="#605C58" d="M70.058,4.516c-3.418,0-6.614,0.82-9.341,2.245c-4.174-3.705-9.86-5.99-16.134-5.99
			c-5.89,0-11.264,2.015-15.354,5.328C26.34,4.41,22.857,3.424,19.108,3.424c-9.996,0-18.098,7.008-18.098,15.653
			c0,8.643,8.103,15.653,18.098,15.653c2.175,0,4.261-0.334,6.193-0.941c4.159,5.691,11.242,9.439,19.282,9.439
			c7.625,0,14.391-3.371,18.615-8.573c2.117,0.749,4.433,1.167,6.859,1.167c9.997,0,18.099-7.01,18.099-15.653
			C88.156,11.524,80.055,4.516,70.058,4.516z"/>
		<circle fill="#FFFFFF" cx="45.334" cy="23.135" r="17.609"/>
		<g>
			<g>
				<ellipse fill="#FFFFFF" cx="53.017" cy="18.246" rx="4.581" ry="5.477"/>
				<circle fill="#605C58" cx="53.056" cy="17.993" r="3.769"/>
				<circle fill="#FFFFFF" cx="52.492" cy="17.088" r="1.838"/>
			</g>
			<g>
				<ellipse fill="#FFFFFF" cx="37.368" cy="18.246" rx="4.58" ry="5.477"/>
				<circle fill="#605C58" cx="37.406" cy="17.993" r="3.768"/>
				<circle fill="#FFFFFF" cx="36.844" cy="17.088" r="1.838"/>
			</g>
			<path fill="#ADA69F" d="M48.959,22.994c-0.673-1.712-6.485-1.618-7.358,0c-0.615,1.14,2.393,3.64,3.688,3.639
				C46.582,26.631,49.43,24.197,48.959,22.994z"/>
			<path fill="#ADA69F" d="M57.435,12.332c-0.198,0.349-0.642,0.474-0.992,0.275l-2.22-1.25c-0.349-0.198-0.474-0.641-0.275-0.992
				l0,0c0.196-0.35,0.642-0.474,0.991-0.276l2.219,1.25C57.509,11.537,57.632,11.981,57.435,12.332L57.435,12.332z"/>
			<path fill="#ADA69F" d="M32.839,12.332c0.198,0.349,0.641,0.474,0.991,0.275l2.22-1.25c0.35-0.198,0.474-0.641,0.277-0.992l0,0
				c-0.198-0.35-0.642-0.474-0.992-0.276l-2.219,1.25C32.766,11.537,32.642,11.981,32.839,12.332L32.839,12.332z"/>
			<path fill="#ADA69F" d="M50.518,31.5c-0.908,1-2.566,2.548-4.472,2.548c-1.904,0-3.562-1.548-4.471-2.548h-0.598
				c0.548,1,2.606,4.002,5.068,4.002c2.463,0,4.521-3.002,5.069-4.002H50.518z"/>
		</g>
	</g>
	<path fill="#605C58" d="M51.938,43.5c0,0,5.834-3.666,6.312,1.334s1.168,14.999-2.333,15.666
		C52.415,61.167,51.938,43.5,51.938,43.5z"/>
	<path fill="#605C58" d="M38.646,43.5c0,0-5.834-3.666-6.312,1.334S31.166,59.833,34.667,60.5
		C38.169,61.167,38.646,43.5,38.646,43.5z"/>
	<path fill="#605C58" d="M51.083,43.75l-4.5,0.25c0,0-1.12,10.093-1.306,18.624C45.092,54.093,43.972,44,43.972,44l-4.5-0.25
		c0,0-2.75,27.5,0,30.25c1.5,1.5,3.247,1.253,4.5,0c0.839-0.839,1.208-3.559,1.306-7.038c0.097,3.479,0.466,6.199,1.306,7.038
		c1.253,1.253,3,1.5,4.5,0C53.833,71.25,51.083,43.75,51.083,43.75z"/>
</g>
</svg>
