<?xml version="1.0" encoding="utf-8"?>
<!-- Generator: Adobe Illustrator 24.1.0, SVG Export Plug-In . SVG Version: 6.00 Build 0)  -->
<svg version="1.1" id="Layer_1" xmlns="http://www.w3.org/2000/svg" xmlns:xlink="http://www.w3.org/1999/xlink" x="0px" y="0px"
	 viewBox="0 0 90 90" style="enable-background:new 0 0 90 90;" xml:space="preserve">
<style type="text/css">
	.st0{fill:#FFFFFF;}
</style>
<path class="st0" d="M77.8,35.1c0-0.1,0-0.1,0-0.2c0,0,0-0.1,0-0.1c0-0.1,0-0.1-0.1-0.2c0,0,0,0,0-0.1c0,0,0-0.1-0.1-0.1
	c0,0,0-0.1-0.1-0.1c0,0,0,0,0,0c-0.1-0.1-0.1-0.1-0.2-0.2c0,0-0.1,0-0.1-0.1c0,0-0.1,0-0.1-0.1c0,0-0.1-0.1-0.1-0.1
	c-0.1,0-0.1-0.1-0.2-0.1l0,0l-0.5-0.2c-0.1-0.8-0.7-1.4-1.5-1.4c-0.4,0-0.7,0.1-1,0.4L50.1,23c0.2-0.3,0.4-0.5,0.6-0.8
	c0.8-1.6,0.8-3.5-0.2-5l-1.3-2c1.3-0.8,2.1-2.2,2.1-3.8c0-2.4-2-4.4-4.4-4.4c-2.4,0-4.4,2-4.4,4.4c0,2.2,1.5,4,3.6,4.3l2,3
	c0.4,0.6,0.4,1.3,0.1,2c-0.7,1.2-2.6,1.3-3.3,0.1c-0.4-0.6-0.4-1.3-0.1-1.9c0.4-0.7,0.1-1.6-0.7-2c-0.7-0.4-1.6-0.1-2,0.7
	c-0.8,1.5-0.7,3.3,0.2,4.7c0.2,0.3,0.4,0.6,0.6,0.8l-23.2,9.3c-0.3-0.2-0.6-0.4-1-0.4c-0.8,0-1.4,0.6-1.5,1.4l-0.6,0.2c0,0,0,0,0,0
	c-0.1,0-0.2,0.1-0.2,0.1c-0.1,0.1-0.2,0.1-0.2,0.2c-0.1,0.1-0.1,0.1-0.1,0.2c0,0,0,0,0,0.1c0,0,0,0,0,0c-0.1,0.2-0.2,0.3-0.2,0.5
	c0,0,0,0,0,0c0,0.1,0,0.2,0,0.3c0,0,0,0,0,0v41.3c0,0.4,0.1,0.8,0.4,1c0.3,0.3,0.6,0.4,1,0.4h47.3c0.8,0,1.5-0.7,1.5-1.5
	S65.3,75,64.5,75H18.7V36.6h56.1v39.8c0,0,0,0.1,0,0.1c0,0.8,0.7,1.5,1.5,1.5c0.4,0,0.8-0.1,1-0.4c0.3-0.3,0.4-0.7,0.4-1L77.8,35.1
	C77.8,35.1,77.8,35.1,77.8,35.1z M46.8,10c0.8,0,1.5,0.7,1.5,1.5c0,0.8-0.7,1.5-1.5,1.5c-0.8,0-1.5-0.7-1.5-1.5
	C45.3,10.6,46,10,46.8,10z M46.8,24.9l21.9,8.7H24.9L46.8,24.9z M71.9,76.4c0,0.8-0.7,1.5-1.5,1.5c-0.8,0-1.5-0.7-1.5-1.5
	s0.7-1.5,1.5-1.5C71.2,75,71.9,75.6,71.9,76.4z M71.9,40.7c0-0.1,0-0.1,0-0.2c0,0,0-0.1,0-0.1c0-0.1-0.1-0.1-0.1-0.2
	c0,0,0-0.1,0-0.1c0,0,0,0,0,0c0-0.1-0.1-0.1-0.1-0.1c0,0,0-0.1-0.1-0.1c0,0-0.1-0.1-0.1-0.1c0,0-0.1-0.1-0.1-0.1c0,0-0.1,0-0.1,0
	c-0.1,0-0.1-0.1-0.2-0.1c0,0,0,0-0.1,0c-0.1,0-0.1,0-0.2-0.1c0,0,0,0-0.1,0c-0.1,0-0.1,0-0.2,0c0,0,0,0,0,0H23.2c0,0,0,0,0,0
	c-0.1,0-0.1,0-0.2,0c0,0-0.1,0-0.1,0c-0.1,0-0.1,0-0.2,0.1c0,0-0.1,0-0.1,0c-0.1,0-0.1,0.1-0.1,0.1c0,0-0.1,0-0.1,0.1
	c0,0-0.1,0.1-0.1,0.1c0,0-0.1,0.1-0.1,0.1c0,0-0.1,0.1-0.1,0.1c0,0-0.1,0.1-0.1,0.1c0,0,0,0,0,0c0,0,0,0.1,0,0.1
	c0,0-0.1,0.1-0.1,0.1c0,0,0,0.1,0,0.1c0,0,0,0.1,0,0.1c0,0.1,0,0.1,0,0.2c0,0,0,0.1,0,0.1v29.5c0,0,0,0.1,0,0.1c0,0.1,0,0.1,0,0.2
	c0,0,0,0.1,0,0.1c0,0,0,0.1,0,0.1c0,0,0,0.1,0.1,0.1c0,0,0,0.1,0,0.1c0,0,0,0,0,0c0.1,0.1,0.1,0.2,0.2,0.3c0,0,0,0,0.1,0.1
	c0.1,0.1,0.1,0.1,0.2,0.1c0,0,0.1,0,0.1,0.1c0.1,0,0.1,0.1,0.2,0.1c0,0,0.1,0,0.1,0c0.1,0,0.2,0,0.3,0h0h47.3h0c0.1,0,0.2,0,0.3,0
	c0,0,0.1,0,0.1,0c0.1,0,0.2-0.1,0.2-0.1c0,0,0.1,0,0.1-0.1c0.1,0,0.1-0.1,0.2-0.1c0,0,0,0,0.1-0.1c0.1-0.1,0.2-0.2,0.2-0.3
	c0,0,0,0,0,0c0,0,0-0.1,0-0.1c0-0.1,0.1-0.1,0.1-0.2c0,0,0-0.1,0-0.1c0-0.1,0-0.1,0-0.2c0-0.1,0-0.1,0-0.2c0,0,0-0.1,0-0.1V41
	c0,0,0-0.1,0-0.1C71.9,40.8,71.9,40.8,71.9,40.7z M28.3,69.1l18.5-11.5l18.5,11.5H28.3z M65.3,42.5l-7.1,4.4h-2.5
	c-0.8,0-1.5,0.7-1.5,1.5v1L46.8,54L28.3,42.5H65.3z M68.9,67.9L49.6,55.8l4.6-2.9v1.4c0,0.8,0.7,1.5,1.5,1.5h8.9
	c0.8,0,1.5-0.7,1.5-1.5v-5.9c0-0.8-0.7-1.5-1.5-1.5h-0.8l5.2-3.2V67.9z M57.1,51v-1.2H59h4v3h-5.9V51z M24.6,43.7L44,55.8L24.6,67.9
	V43.7z"/>
</svg>
