<?xml version="1.0" encoding="utf-8"?>
<!-- Generator: Adobe Illustrator 16.0.0, SVG Export Plug-In . SVG Version: 6.00 Build 0)  -->
<!DOCTYPE svg PUBLIC "-//W3C//DTD SVG 1.1//EN" "http://www.w3.org/Graphics/SVG/1.1/DTD/svg11.dtd">
<svg version="1.1" id="Layer_1" xmlns="http://www.w3.org/2000/svg" xmlns:xlink="http://www.w3.org/1999/xlink" x="0px" y="0px"
	 width="26px" height="26px" viewBox="0 0 26 26" enable-background="new 0 0 26 26" xml:space="preserve">
<path fill="none" stroke="#231F20" stroke-miterlimit="10" d="M13,18.566c-3.064,0-5.549-2.494-5.549-5.566
	c0-3.074,2.484-5.566,5.549-5.566S18.549,9.926,18.549,13"/>
<path fill="none" stroke="#231F20" stroke-miterlimit="10" d="M21.441,17.501c0.288-0.543,0.525-1.117,0.707-1.716h2.771
	c0.217,0,0.394-0.188,0.394-0.418v-4.734c0-0.232-0.177-0.417-0.394-0.417l-2.784-0.001c-0.183-0.594-0.422-1.163-0.712-1.699
	l1.976-1.973c0.152-0.154,0.145-0.412-0.019-0.575L20.032,2.62c-0.165-0.164-0.42-0.171-0.574-0.019l-1.987,1.987
	c-0.534-0.282-1.097-0.515-1.685-0.693V1.079c0-0.217-0.188-0.391-0.418-0.392h-4.734c-0.232,0-0.419,0.175-0.419,0.392v2.824
	C9.63,4.083,9.07,4.317,8.539,4.6L6.542,2.601c-0.154-0.152-0.41-0.144-0.573,0.019l-3.35,3.349
	c-0.162,0.165-0.17,0.421-0.018,0.574l1.997,1.994c-0.285,0.533-0.521,1.093-0.699,1.679H1.08c-0.218,0-0.393,0.186-0.393,0.417
	v4.734c0,0.23,0.174,0.418,0.393,0.418h2.804c0.18,0.591,0.413,1.157,0.698,1.694l-1.98,1.979c-0.152,0.154-0.146,0.409,0.018,0.573
	l3.35,3.348c0.163,0.163,0.421,0.172,0.573,0.018l1.965-1.965c0.541,0.289,1.112,0.53,1.708,0.713v2.774
	c0,0.217,0.187,0.394,0.419,0.393l4.734,0.001c0.23-0.001,0.418-0.178,0.418-0.395v-2.764c0.6-0.183,1.174-0.422,1.717-0.712
	l1.956,1.955c0.153,0.153,0.41,0.146,0.573-0.019l3.348-3.348"/>
<g>
</g>
<g>
</g>
<g>
</g>
<g>
</g>
<g>
</g>
<g>
</g>
</svg>
