<?xml version="1.0" encoding="utf-8"?>
<!-- Generator: Adobe Illustrator 24.1.0, SVG Export Plug-In . SVG Version: 6.00 Build 0)  -->
<svg version="1.1" xmlns="http://www.w3.org/2000/svg" xmlns:xlink="http://www.w3.org/1999/xlink" x="0px" y="0px"
	 viewBox="0 0 128 128" style="enable-background:new 0 0 128 128;" xml:space="preserve">
<style type="text/css">
	.st0{display:none;}
	.st1{display:inline;fill:#2E3192;}
	.st2{fill:#F8F8F8;}
	.st3{fill:#FFFFFF;}
	.st4{fill:#2E3192;}
	.st5{fill:url(#background_1_);}
	.st6{fill:#1B0F34;}
	.st7{fill:#D4EFFC;}
</style>
<g id="Layer_1" class="st0">
	<rect x="-8" y="-8.3" class="st1" width="145.8" height="145.8"/>
</g>
<g id="Layer_2">
	<g>
		<path class="st2" d="M124.7,69.3L128,64l-3.3-5.3l2.3-5.8l-4.2-4.7l1.3-6.1l-4.9-3.9l0.2-6.2l-5.5-3l-0.9-6.2l-5.9-2l-2-5.9
			L99,14.1l-3-5.5l-6.2,0.2l-3.9-4.9l-6.1,1.3L75.1,1l-5.8,2.3L64,0l-5.3,3.3L52.9,1l-4.7,4.2l-6.1-1.3l-3.9,4.9L32,8.6l-3,5.5
			L22.9,15l-2,5.9l-5.9,2L14.1,29l-5.5,3l0.2,6.2l-4.9,3.9l1.3,6.1L1,52.9l2.3,5.8L0,64l3.3,5.3L1,75.1l4.2,4.7l-1.3,6.1l4.9,3.9
			L8.6,96l5.5,3l0.9,6.2l5.9,2l2,5.9l6.2,0.9l3,5.5l6.2-0.2l3.9,4.9l6.1-1.3l4.7,4.2l5.8-2.3L64,128l5.3-3.3l5.8,2.3l4.7-4.2
			l6.1,1.3l3.9-4.9l6.2,0.2l3-5.5l6.2-0.9l2-5.9l5.9-2l0.9-6.2l5.5-3l-0.2-6.2l4.9-3.9l-1.3-6.1l4.2-4.7L124.7,69.3z M15.9,32.3
			c0.5-0.7,1.4-0.9,2.1-0.4c0.7,0.5,0.9,1.4,0.4,2.1c-0.3,0.4-0.8,0.7-1.2,0.7c-0.3,0-0.6-0.1-0.8-0.2
			C15.6,33.9,15.4,32.9,15.9,32.3z M12.8,37.5c0.4-0.7,1.3-1,2-0.6c0.7,0.4,1,1.3,0.6,2c-0.3,0.5-0.8,0.8-1.3,0.8
			c-0.2,0-0.5,0-0.7-0.2C12.7,39.2,12.4,38.3,12.8,37.5z M10.2,43.1c0.3-0.8,1.2-1.2,1.9-0.9c0.8,0.3,1.2,1.2,0.9,1.9
			c-0.2,0.6-0.8,1-1.4,1c-0.2,0-0.4,0-0.5-0.1C10.3,44.8,9.9,43.9,10.2,43.1z M8.3,49c0.2-0.8,1-1.3,1.8-1.1c0.8,0.2,1.3,1,1,1.8
			c-0.2,0.7-0.8,1.1-1.4,1.1c-0.1,0-0.3,0-0.4,0C8.6,50.6,8.1,49.8,8.3,49z M7.1,55C7.1,55,7.1,55,7.1,55c0.1-0.8,0.9-1.4,1.7-1.2
			c0.8,0.1,1.4,0.9,1.2,1.7c-0.1,0.7-0.8,1.3-1.5,1.3c-0.1,0-0.2,0-0.2,0C7.5,56.5,6.9,55.8,7.1,55z M8,59.6c0.8,0,1.5,0.7,1.4,1.6
			h0c0,0.8-0.7,1.4-1.5,1.4c0,0,0,0-0.1,0C7,62.6,6.4,61.9,6.4,61C6.5,60.2,7.2,59.6,8,59.6z M6.4,67.2c0-0.8,0.6-1.5,1.4-1.6
			c0.8,0,1.5,0.6,1.6,1.4c0,0.8-0.6,1.5-1.4,1.6c0,0,0,0-0.1,0C7.1,68.6,6.5,68,6.4,67.2z M7.1,73.3c-0.1-0.8,0.4-1.6,1.2-1.7
			c0.8-0.1,1.6,0.4,1.7,1.2c0.1,0.8-0.4,1.6-1.2,1.7c-0.1,0-0.2,0-0.2,0C7.8,74.5,7.2,74,7.1,73.3z M8.4,79.3
			c-0.2-0.8,0.2-1.6,1-1.8c0.8-0.2,1.6,0.2,1.8,1.1c0.2,0.8-0.2,1.6-1.1,1.8c-0.1,0-0.3,0-0.4,0C9.2,80.4,8.6,79.9,8.4,79.3z
			 M11.7,86c-0.6,0-1.2-0.4-1.4-1c0,0,0,0,0,0c-0.3-0.8,0.1-1.6,0.8-1.9c0.8-0.3,1.6,0.1,2,0.8c0.3,0.8-0.1,1.6-0.9,2
			C12.1,86,11.9,86,11.7,86z M14.9,91.3c-0.2,0.1-0.5,0.2-0.7,0.2c-0.5,0-1.1-0.3-1.3-0.8c-0.4-0.7-0.1-1.6,0.6-2
			c0.7-0.4,1.6-0.1,2,0.6C15.9,90,15.6,90.9,14.9,91.3z M18.1,96.3c-0.3,0.2-0.5,0.2-0.8,0.2c-0.5,0-1-0.2-1.3-0.7
			c-0.5-0.7-0.3-1.6,0.4-2.1c0.7-0.5,1.6-0.3,2.1,0.4C19,95,18.8,95.9,18.1,96.3z M19.5,27.3c0.5-0.6,1.5-0.7,2.1-0.2
			c0.6,0.5,0.7,1.5,0.2,2.1c-0.3,0.4-0.7,0.5-1.2,0.5c-0.3,0-0.7-0.1-1-0.3C19.1,28.9,19,28,19.5,27.3z M21.8,101
			c-0.3,0.2-0.6,0.4-1,0.4c-0.4,0-0.8-0.2-1.1-0.5c-0.5-0.6-0.4-1.6,0.2-2.1c0.6-0.5,1.6-0.5,2.1,0.2C22.5,99.6,22.4,100.5,21.8,101
			z M104,24.7c0.6-0.6,1.6-0.5,2.1,0.1c0.6,0.6,0.5,1.5-0.1,2.1c-0.3,0.3-0.7,0.4-1,0.4c-0.4,0-0.8-0.2-1.1-0.5h0
			C103.4,26.2,103.4,25.3,104,24.7z M99.6,20.7c0.5-0.6,1.5-0.7,2.1-0.1c0.6,0.5,0.7,1.5,0.1,2.1c-0.3,0.4-0.7,0.5-1.1,0.5
			c-0.3,0-0.7-0.1-1-0.4C99.2,22.2,99.1,21.3,99.6,20.7z M94.8,17.1c0.5-0.7,1.4-0.8,2.1-0.4c0.7,0.5,0.8,1.4,0.4,2.1
			c-0.3,0.4-0.8,0.6-1.2,0.6c-0.3,0-0.6-0.1-0.8-0.3C94.5,18.7,94.4,17.8,94.8,17.1z M89.7,14.1c0.4-0.7,1.3-1,2-0.6
			c0.7,0.4,1,1.3,0.6,2C92,16,91.5,16.3,91,16.3c-0.2,0-0.5-0.1-0.7-0.2C89.5,15.7,89.3,14.8,89.7,14.1z M84.2,11.6
			c0.3-0.8,1.2-1.1,2-0.8c0.8,0.3,1.1,1.2,0.8,2c-0.2,0.6-0.8,0.9-1.4,0.9c-0.2,0-0.4,0-0.6-0.1C84.3,13.3,83.9,12.4,84.2,11.6z
			 M78.6,9.8c0.2-0.8,1.1-1.2,1.9-1c0.8,0.2,1.2,1.1,1,1.9c-0.2,0.7-0.8,1.1-1.4,1.1c-0.1,0-0.3,0-0.4-0.1v0
			C78.8,11.4,78.3,10.6,78.6,9.8z M72.7,8.5c0.2-0.8,0.9-1.3,1.8-1.2c0.8,0.1,1.3,0.9,1.2,1.8c-0.1,0.7-0.8,1.2-1.5,1.2
			c-0.1,0-0.2,0-0.3,0C73.1,10.1,72.6,9.4,72.7,8.5z M68.4,6.5c0.8,0.1,1.5,0.8,1.4,1.6c-0.1,0.8-0.7,1.4-1.5,1.4c0,0-0.1,0-0.1,0
			c-0.8-0.1-1.4-0.8-1.4-1.6C66.8,7.1,67.6,6.5,68.4,6.5z M62.3,6.4c0.8,0,1.5,0.6,1.5,1.5c0,0.8-0.6,1.5-1.5,1.5
			c-0.8,0-1.5-0.6-1.5-1.5C60.8,7.1,61.4,6.4,62.3,6.4z M56.2,6.9c0.8-0.1,1.6,0.5,1.7,1.3C58,9,57.4,9.8,56.6,9.9
			c-0.1,0-0.1,0-0.2,0c-0.7,0-1.4-0.5-1.5-1.3C54.8,7.8,55.3,7,56.2,6.9z M95.5,21.2c0.2-0.2,0.6-0.2,0.8,0l5.7,5.7
			c0.2,0.2,0.2,0.6,0,0.8L57.1,72.5c-0.2,0.2-0.6,0.2-0.8,0l-5.7-5.7c-0.2-0.2-0.2-0.6,0-0.8L95.5,21.2z M50.1,8.1
			c0.8-0.2,1.6,0.3,1.8,1.1c0.2,0.8-0.3,1.6-1.1,1.8c-0.1,0-0.2,0-0.4,0c-0.7,0-1.3-0.5-1.5-1.1C48.8,9.1,49.3,8.3,50.1,8.1z
			 M44.3,9.8c0.8-0.3,1.6,0.1,1.9,0.9c0.3,0.8-0.1,1.6-0.9,1.9c-0.2,0.1-0.4,0.1-0.5,0.1c-0.6,0-1.2-0.4-1.4-1
			C43.1,11,43.5,10.1,44.3,9.8z M38.6,12.2c0.7-0.4,1.6-0.1,2,0.7c0.4,0.7,0.1,1.6-0.7,2c-0.2,0.1-0.4,0.2-0.7,0.2
			c-0.6,0-1.1-0.3-1.4-0.8C37.6,13.5,37.9,12.6,38.6,12.2z M33.3,15.2c0.7-0.4,1.6-0.2,2.1,0.5c0.4,0.7,0.2,1.6-0.5,2.1
			c-0.2,0.1-0.5,0.2-0.8,0.2c-0.5,0-1-0.2-1.3-0.7C32.4,16.6,32.6,15.7,33.3,15.2z M28.3,18.8c0.7-0.5,1.6-0.4,2.1,0.2
			c0.5,0.6,0.4,1.6-0.2,2.1c-0.3,0.2-0.6,0.3-0.9,0.3c-0.4,0-0.9-0.2-1.2-0.6C27.5,20.2,27.6,19.3,28.3,18.8z M23.7,22.8
			c0.6-0.6,1.5-0.6,2.1,0c0.6,0.6,0.6,1.5,0,2.1c-0.3,0.3-0.7,0.4-1,0.4s-0.8-0.2-1.1-0.5C23.1,24.3,23.1,23.4,23.7,22.8z M26,105.3
			c-0.3,0.3-0.7,0.5-1.1,0.5c-0.4,0-0.8-0.1-1-0.4c-0.6-0.6-0.6-1.5,0-2.1c0.6-0.6,1.5-0.6,2.1,0C26.5,103.8,26.5,104.7,26,105.3z
			 M30.6,109.1c-0.3,0.4-0.7,0.6-1.2,0.6c-0.3,0-0.7-0.1-0.9-0.3c-0.6-0.5-0.8-1.5-0.2-2.1c0.5-0.7,1.5-0.8,2.1-0.2
			C31,107.5,31.1,108.5,30.6,109.1z M35.5,112.4c-0.3,0.5-0.8,0.7-1.3,0.7c-0.3,0-0.5-0.1-0.8-0.2c-0.7-0.4-0.9-1.4-0.5-2.1
			c0.4-0.7,1.4-0.9,2.1-0.5C35.8,110.8,36,111.7,35.5,112.4z M40.8,115.2c-0.3,0.5-0.8,0.8-1.4,0.8c-0.2,0-0.4-0.1-0.6-0.2
			c-0.8-0.4-1.1-1.3-0.7-2c0.4-0.7,1.3-1,2-0.7C40.9,113.5,41.2,114.4,40.8,115.2z M46.4,117.3c-0.2,0.6-0.8,1-1.4,1
			c-0.2,0-0.3,0-0.5-0.1c-0.8-0.3-1.2-1.1-0.9-1.9c0.3-0.8,1.1-1.2,1.9-0.9C46.3,115.7,46.7,116.6,46.4,117.3z M52.2,118.9
			c-0.2,0.7-0.8,1.1-1.5,1.1c-0.1,0-0.2,0-0.4,0c-0.8-0.2-1.3-1-1.1-1.8c0.2-0.8,1-1.3,1.8-1.1C51.9,117.3,52.4,118.1,52.2,118.9z
			 M58.1,119.8c-0.1,0.8-0.7,1.3-1.5,1.3c-0.1,0-0.1,0-0.2,0c-0.8-0.1-1.4-0.9-1.3-1.7c0.1-0.8,0.9-1.4,1.7-1.3
			C57.6,118.2,58.2,119,58.1,119.8z M62.5,121.6C62.5,121.6,62.5,121.6,62.5,121.6c-0.9,0-1.5-0.7-1.5-1.5c0-0.8,0.7-1.5,1.5-1.5
			c0.8,0,1.5,0.7,1.5,1.5C64,120.9,63.3,121.6,62.5,121.6z M68.6,121.4c0,0-0.1,0-0.1,0c-0.8,0-1.4-0.6-1.5-1.4
			c-0.1-0.8,0.5-1.5,1.4-1.6c0.8-0.1,1.5,0.5,1.6,1.4C70.1,120.6,69.4,121.4,68.6,121.4z M74.7,120.6c-0.1,0-0.2,0-0.3,0
			c-0.7,0-1.3-0.5-1.5-1.2c-0.2-0.8,0.4-1.6,1.2-1.8c0.8-0.1,1.6,0.4,1.8,1.2C76,119.7,75.5,120.5,74.7,120.6z M80.6,119.2
			c-0.1,0-0.3,0.1-0.4,0.1c-0.6,0-1.2-0.4-1.4-1.1c-0.2-0.8,0.2-1.6,1-1.9c0.8-0.2,1.6,0.2,1.9,1C81.9,118.1,81.4,118.9,80.6,119.2z
			 M83.7,105.3h-3.9v-8.9h-2.3v8.9h-3.9v-4.9h-2.3v4.9h-3.9v-8.9h-2.4v8.9H61v-4.9h-2.3v4.9h-3.9v-8.9h-2.3v8.9h-3.9v-4.9h-2.4v4.9
			h-3.9v-8.9H40v8.9h-3.9v-4.9h-2.4v4.9h-6.5v-8.7h8.9v-2.4h-8.9v-3.8h4.9v-2.4h-4.9v-3.9h8.9v-2.4h-8.9v-3.9h4.9v-2.4h-4.9v-3.9
			h8.9v-2.3h-8.9v-3.9h4.9v-2.4h-4.9v-3.9h8.9v-2.4h-8.9V53h4.9v-2.3h-4.9v-3.1h20.6v37.2h42.2v20.6H86v-4.9h-2.4V105.3z
			 M86.4,117.1c-0.2,0.1-0.4,0.1-0.6,0.1c-0.6,0-1.1-0.3-1.4-0.9c-0.3-0.8,0-1.6,0.8-2c0.8-0.3,1.6,0,2,0.8
			C87.5,115.9,87.2,116.8,86.4,117.1z M91.9,114.4c-0.2,0.1-0.5,0.2-0.7,0.2c-0.5,0-1-0.3-1.3-0.8c-0.4-0.7-0.2-1.6,0.6-2
			c0.7-0.4,1.6-0.1,2,0.6C92.9,113.1,92.6,114,91.9,114.4z M97.1,111.1c-0.3,0.2-0.6,0.3-0.9,0.3c-0.5,0-0.9-0.2-1.2-0.6
			c-0.5-0.7-0.3-1.6,0.4-2.1c0.7-0.5,1.6-0.3,2.1,0.4C98,109.7,97.8,110.7,97.1,111.1z M69,76.4c0,0.1,0,0.1-0.1,0.2l-1.1,1.1
			c-1.2,1.2-3.2,1.2-4.5,0l-1.4-1.4c-1.2-1.2-1.2-3.2,0-4.5l1.1-1.1c0,0,0,0,0.1,0L99,34.8c0,0,0.1,0,0.1,0c0.1-0.1,0.2-0.2,0.3-0.2
			c0.5-0.2,6-1.5,6.7-1.6c0.2,0,0.4,0,0.5,0.1c0.1,0.1,0.2,0.3,0.1,0.5c-0.5,2.4-1.5,6.5-1.6,6.7c-0.1,0.1-0.1,0.2-0.2,0.2
			c0,0,0,0.1,0,0.1L69,76.4z M101.9,107.3C101.9,107.3,101.9,107.3,101.9,107.3c-0.3,0.2-0.6,0.4-1,0.4c-0.4,0-0.8-0.2-1.1-0.5
			c-0.5-0.6-0.5-1.6,0.1-2.1c0.6-0.6,1.6-0.5,2.1,0.1C102.6,105.8,102.6,106.8,101.9,107.3z M106.3,103.1c-0.3,0.3-0.7,0.5-1.1,0.5
			c-0.4,0-0.7-0.1-1-0.4c-0.6-0.6-0.6-1.5-0.1-2.1c0.6-0.6,1.5-0.6,2.1-0.1C106.8,101.5,106.9,102.5,106.3,103.1z M121.2,57.6
			c0.1,0.8-0.5,1.6-1.3,1.7c-0.1,0-0.1,0-0.2,0c-0.8,0-1.4-0.6-1.5-1.3c-0.1-0.8,0.5-1.6,1.3-1.7C120.4,56.2,121.1,56.8,121.2,57.6z
			 M120.2,51.6c0.2,0.8-0.3,1.6-1.1,1.8c-0.1,0-0.2,0-0.3,0c-0.7,0-1.3-0.5-1.5-1.2c-0.2-0.8,0.3-1.6,1.1-1.8
			C119.3,50.3,120.1,50.8,120.2,51.6z M118.6,45.7c0.3,0.8-0.2,1.6-1,1.9c-0.2,0-0.3,0.1-0.5,0.1c-0.6,0-1.2-0.4-1.4-1
			c-0.3-0.8,0.2-1.6,1-1.9C117.5,44.5,118.4,44.9,118.6,45.7z M114.4,39.2c0.8-0.3,1.6,0,2,0.7c0.4,0.8,0,1.6-0.7,2
			c-0.2,0.1-0.4,0.1-0.6,0.1c-0.6,0-1.1-0.3-1.4-0.9C113.3,40.5,113.6,39.6,114.4,39.2z M108,29.2c0.7-0.5,1.6-0.4,2.1,0.3
			c0.5,0.7,0.4,1.6-0.3,2.1c-0.3,0.2-0.6,0.3-0.9,0.3c-0.5,0-0.9-0.2-1.2-0.6C107.2,30.6,107.3,29.7,108,29.2z M110.2,98.3
			c-0.3,0.4-0.8,0.6-1.2,0.6c-0.3,0-0.6-0.1-0.9-0.3c-0.7-0.5-0.8-1.4-0.3-2.1c0.5-0.7,1.4-0.8,2.1-0.3
			C110.6,96.7,110.7,97.7,110.2,98.3z M111.5,34c0.7-0.4,1.6-0.2,2,0.5c0.4,0.7,0.2,1.6-0.5,2.1c-0.2,0.1-0.5,0.2-0.8,0.2
			c-0.5,0-1-0.3-1.3-0.7C110.5,35.4,110.7,34.5,111.5,34z M113.6,93.2c-0.3,0.5-0.8,0.7-1.3,0.7c-0.2,0-0.5-0.1-0.8-0.2
			c-0.7-0.4-0.9-1.3-0.5-2c0.4-0.7,1.3-1,2-0.5C113.8,91.6,114,92.5,113.6,93.2z M116.5,87.8c-0.2,0.5-0.8,0.9-1.4,0.9
			c-0.2,0-0.4,0-0.6-0.1c-0.8-0.4-1.1-1.2-0.7-2c0.3-0.8,1.2-1.1,2-0.7C116.5,86.2,116.8,87,116.5,87.8z M118.7,82.1
			c-0.2,0.6-0.8,1-1.4,1c-0.2,0-0.3,0-0.5-0.1c-0.8-0.3-1.2-1.1-1-1.9c0.3-0.8,1.1-1.2,1.9-1C118.5,80.4,118.9,81.3,118.7,82.1z
			 M120.3,76.2c-0.2,0.7-0.8,1.2-1.5,1.2c-0.1,0-0.2,0-0.3,0c-0.8-0.2-1.3-1-1.1-1.8c0.2-0.8,1-1.3,1.8-1.1
			C120,74.6,120.5,75.4,120.3,76.2z M119.8,71.5c-0.1,0-0.1,0-0.2,0c-0.8-0.1-1.4-0.8-1.3-1.6c0.1-0.8,0.8-1.4,1.7-1.3
			c0.8,0.1,1.4,0.8,1.3,1.6C121.2,70.9,120.5,71.5,119.8,71.5z M121.6,64c0,0.8-0.7,1.5-1.5,1.5s-1.5-0.7-1.5-1.5c0,0,0-0.1,0-0.1
			s0-0.1,0-0.1c0-0.8,0.7-1.5,1.5-1.5c0.8,0,1.5,0.7,1.5,1.5c0,0,0,0.1,0,0.1C121.6,63.9,121.6,64,121.6,64z"/>
		
			<rect x="60.8" y="56.7" transform="matrix(0.7072 -0.707 0.707 0.7072 -15.4671 77.3416)" class="st2" width="49.7" height="1.2"/>
		<rect x="59.1" y="55" transform="matrix(0.7071 -0.7071 0.7071 0.7071 -14.7709 75.657)" class="st2" width="49.7" height="1.4"/>
		<polygon class="st2" points="100.3,36.8 99.4,35.9 64.2,71.1 65.1,72 		"/>
		<path class="st2" d="M103.4,34.6c-1.1,0.3-2.1,0.5-2.8,0.7l3.7,3.7c0.2-0.7,0.4-1.7,0.7-2.8L103.4,34.6z"/>
		<path class="st2" d="M64.7,73.2l-1.3-1.3l-0.7,0.7c-0.8,0.8-0.8,2.1,0,2.9l1.4,1.4c0.8,0.8,2.1,0.8,2.9,0l0.7-0.7l-1.3-1.3
			L64.7,73.2z"/>
		<polygon class="st2" points="57.3,70.8 54.4,67.9 55.2,67.2 58,70 58.9,69.1 57.6,67.7 58.3,67 59.7,68.3 60.2,67.9 57.3,65 
			58.1,64.3 60.9,67.1 61.8,66.2 60.4,64.9 61.2,64.1 62.6,65.4 63.5,64.6 60.6,61.7 61.4,61 64.2,63.8 64.7,63.3 63.3,62 
			64.1,61.2 65.5,62.6 66.3,61.7 63.5,58.8 64.3,58.1 67.1,60.9 68,60 66.6,58.7 67.4,57.9 68.8,59.3 69.2,58.8 66.4,56 67.2,55.2 
			70,58 70.9,57.2 69.5,55.8 70.3,55 71.6,56.4 72.1,55.9 69.3,53.1 70,52.3 72.9,55.1 73.8,54.3 72.4,52.9 73.2,52.1 74.5,53.5 
			75.4,52.6 72.6,49.8 73.3,49 76.2,51.8 76.6,51.4 75.3,50 76,49.2 77.4,50.6 78.3,49.7 75.5,46.9 76.2,46.1 79.1,49 79.9,48.1 
			78.6,46.7 79.4,45.9 80.7,47.3 81.2,46.9 78.3,44 79.1,43.2 82,46.1 82.8,45.2 81.5,43.8 82.2,43.1 83.6,44.4 84.5,43.5 
			81.6,40.7 82.4,39.9 85.2,42.8 85.7,42.3 84.4,40.9 85.1,40.2 86.5,41.5 87.4,40.7 84.5,37.8 85.3,37.1 88.1,39.9 88.6,39.4 
			87.2,38.1 88,37.3 89.4,38.7 90.2,37.8 87.4,34.9 88.2,34.2 91,37 91.9,36.1 90.5,34.8 91.3,34 92.7,35.3 93.1,34.9 90.3,32.1 
			91.1,31.3 93.9,34.1 94.8,33.2 93.4,31.9 94.2,31.1 95.6,32.5 96.4,31.6 93.6,28.7 94.4,28 97.2,30.8 97.7,30.3 96.3,29 
			97.1,28.2 98.4,29.6 99.3,28.7 96.5,25.9 97.3,25.1 100.1,27.9 100.8,27.3 95.9,22.4 51.8,66.5 56.7,71.4 		"/>
	</g>
</g>
</svg>
