<svg id="Layer_2" data-name="Layer 2" xmlns="http://www.w3.org/2000/svg" viewBox="0 0 128 128"><defs><style>.cls-1{fill:#f8f8f8;}</style></defs><path class="cls-1" d="M124.71,69.31,128,64l-3.29-5.31,2.32-5.8-4.16-4.66,1.27-6.12-4.91-3.87.2-6.24-5.51-3L113,22.86l-5.94-1.95-2-5.94L99,14.08,96,8.57l-6.24.2L85.89,3.86,79.77,5.13,75.11,1l-5.8,2.32L64,0,58.69,3.29,52.89,1,48.23,5.13,42.11,3.86,38.24,8.77,32,8.57l-3,5.51L22.86,15l-1.95,5.94L15,22.86,14.08,29,8.57,32l.2,6.24L3.86,42.11l1.27,6.12L1,52.89l2.32,5.8L0,64l3.29,5.31L1,75.11l4.16,4.66L3.86,85.89l4.91,3.87L8.57,96l5.51,3,.89,6.18,5.94,2L22.86,113l6.18.89,3,5.51,6.24-.2,3.87,4.91,6.12-1.27L52.89,127l5.8-2.32L64,128l5.31-3.29,5.8,2.32,4.66-4.16,6.12,1.27,3.87-4.91,6.24.2,3-5.51,6.18-.89,2-5.94,5.94-2,.89-6.18,5.51-3-.2-6.24,4.91-3.87-1.27-6.12L127,75.11ZM15.87,32.26a1.5,1.5,0,1,1,2.5,1.65,1.49,1.49,0,0,1-1.25.68,1.46,1.46,0,0,1-.82-.25A1.49,1.49,0,0,1,15.87,32.26Zm-3.1,5.28a1.5,1.5,0,1,1,1.33,2.19,1.49,1.49,0,0,1-1.33-2.19Zm-2.53,5.59a1.5,1.5,0,1,1,1.4,2,1.66,1.66,0,0,1-.54-.1A1.51,1.51,0,0,1,10.24,43.13ZM8.33,49a1.5,1.5,0,1,1,2.89.78,1.48,1.48,0,0,1-1.44,1.11,1.74,1.74,0,0,1-.39-.05A1.5,1.5,0,0,1,8.33,49ZM7.05,55h0a1.5,1.5,0,1,1,1.48,1.74.93.93,0,0,1-.23,0A1.5,1.5,0,0,1,7.05,55ZM8,59.63A1.5,1.5,0,0,1,9.42,61.2h0a1.5,1.5,0,0,1-1.49,1.43H7.84a1.5,1.5,0,0,1,.15-3ZM6.43,67.18A1.5,1.5,0,1,1,8,68.6H7.93A1.5,1.5,0,0,1,6.43,67.18Zm.66,6.09a1.5,1.5,0,1,1,1.72,1.24,1.06,1.06,0,0,1-.25,0A1.49,1.49,0,0,1,7.09,73.27Zm1.3,6a1.5,1.5,0,1,1,1.84,1.06,1.74,1.74,0,0,1-.39.05A1.5,1.5,0,0,1,8.39,79.26ZM11.72,86a1.49,1.49,0,0,1-1.39-1h0a1.5,1.5,0,1,1,1.95.85A1.52,1.52,0,0,1,11.72,86Zm3.18,5.26a1.5,1.5,0,1,1-1.39-2.65,1.5,1.5,0,1,1,1.39,2.65Zm3.18,5.06A1.51,1.51,0,0,1,16,95.93a1.5,1.5,0,1,1,2.09.42Zm1.44-69a1.5,1.5,0,1,1,1.15,2.46,1.45,1.45,0,0,1-1-.35A1.49,1.49,0,0,1,19.52,27.33ZM21.77,101a1.46,1.46,0,0,1-1,.35,1.51,1.51,0,1,1,1-.35Zm1.9-78.21A1.5,1.5,0,1,1,25.76,25a1.48,1.48,0,0,1-1.05.43,1.52,1.52,0,0,1-1.07-.45A1.5,1.5,0,0,1,23.67,22.82ZM26,105.31a1.52,1.52,0,0,1-1.08.45,1.5,1.5,0,1,1,1.08-.45Zm2.32-86.54a1.5,1.5,0,1,1,1.86,2.35,1.49,1.49,0,0,1-.93.33A1.53,1.53,0,0,1,28,20.88,1.51,1.51,0,0,1,28.27,18.77Zm2.28,90.35a1.51,1.51,0,0,1-2.11.25,1.5,1.5,0,1,1,2.11-.25ZM84.23,11.64a1.5,1.5,0,1,1,1.38,2.07A1.44,1.44,0,0,1,85,13.6,1.5,1.5,0,0,1,84.23,11.64ZM78.56,9.78A1.5,1.5,0,1,1,80,11.71a1.65,1.65,0,0,1-.43-.06h0A1.49,1.49,0,0,1,78.56,9.78ZM72.71,8.54a1.5,1.5,0,1,1,1.48,1.77,1.23,1.23,0,0,1-.27,0A1.5,1.5,0,0,1,72.71,8.54Zm-4.33-2a1.5,1.5,0,0,1-.11,3h-.12a1.5,1.5,0,1,1,.23-3Zm-6.12-.14A1.5,1.5,0,0,1,63.8,7.86a1.5,1.5,0,1,1-3,.09A1.5,1.5,0,0,1,62.26,6.41Zm-6.11.5a1.5,1.5,0,1,1,.4,3l-.2,0a1.5,1.5,0,0,1-.2-3Zm-6,1.15A1.5,1.5,0,0,1,50.85,11a1.47,1.47,0,0,1-.36,0,1.5,1.5,0,0,1-.36-2.95ZM44.26,9.84a1.5,1.5,0,1,1,1,2.82,1.58,1.58,0,0,1-.52.09,1.5,1.5,0,0,1-.51-2.91Zm-11,5.39a1.5,1.5,0,1,1,1.6,2.54,1.54,1.54,0,0,1-.8.23,1.5,1.5,0,0,1-.8-2.77Zm2.26,97.18a1.51,1.51,0,0,1-1.28.71,1.45,1.45,0,0,1-.79-.23,1.5,1.5,0,1,1,1.59-2.54A1.49,1.49,0,0,1,35.53,112.41ZM38.62,12.24a1.5,1.5,0,1,1,1.32,2.69,1.43,1.43,0,0,1-.66.16,1.5,1.5,0,0,1-.66-2.85Zm2.21,102.93a1.5,1.5,0,1,1-.69-2A1.5,1.5,0,0,1,40.83,115.17Zm5.57,2.17a1.51,1.51,0,0,1-1.42,1,1.47,1.47,0,0,1-.5-.09,1.5,1.5,0,1,1,1.92-.9Zm5.76,1.55A1.49,1.49,0,0,1,50.71,120a1.47,1.47,0,0,1-.36,0,1.5,1.5,0,1,1,1.81-1.11Zm5.9.94a1.5,1.5,0,0,1-1.49,1.31l-.19,0a1.5,1.5,0,1,1,1.68-1.29Zm4.46,1.77h0A1.5,1.5,0,1,1,64,120.14,1.5,1.5,0,0,1,62.49,121.6Zm6.09-.17h-.12a1.57,1.57,0,1,1,.12,0Zm6.08-.81a1.33,1.33,0,0,1-.28,0,1.52,1.52,0,1,1,.28,0Zm6-1.46a1.29,1.29,0,0,1-.43.07,1.52,1.52,0,1,1,.43-.07ZM82.3,93.44H45.7A1.83,1.83,0,0,1,43.91,92L41.61,80.5a9.15,9.15,0,0,1,6.77-10.69l6.51-1.62V63.68a12.79,12.79,0,0,1-3.66-9V47.39A12.82,12.82,0,0,1,64,34.56a13,13,0,0,1,2.66.28,12.21,12.21,0,0,1,9.88,9.88,12.34,12.34,0,0,1,.28,2.67v7.33a12.77,12.77,0,0,1-3.9,9.2v4.26l6.67,1.63A9.15,9.15,0,0,1,86.39,80.5L84.09,92A1.83,1.83,0,0,1,82.3,93.44Zm4.11,23.64a1.5,1.5,0,1,1,.8-2A1.51,1.51,0,0,1,86.41,117.08Zm3.27-103a1.5,1.5,0,1,1,2.63,1.45,1.52,1.52,0,0,1-1.32.77,1.57,1.57,0,0,1-.72-.18A1.5,1.5,0,0,1,89.68,14.09Zm2.24,100.3a1.47,1.47,0,0,1-.73.19,1.5,1.5,0,1,1,.73-.19Zm2.92-97.28a1.5,1.5,0,1,1,2.45,1.72,1.49,1.49,0,0,1-2.08.37A1.49,1.49,0,0,1,94.84,17.11Zm2.27,94a1.5,1.5,0,1,1,.36-2.09A1.49,1.49,0,0,1,97.11,111.13Zm2.53-90.47a1.5,1.5,0,1,1,2.26,2,1.49,1.49,0,0,1-2.11.15A1.49,1.49,0,0,1,99.64,20.66Zm2.29,86.68h0a1.5,1.5,0,1,1,.14-2.11A1.49,1.49,0,0,1,101.93,107.34ZM104,24.69a1.5,1.5,0,1,1-.07,2.13h0A1.51,1.51,0,0,1,104,24.69Zm2.27,78.38a1.5,1.5,0,0,1-2.12.08,1.51,1.51,0,0,1-.08-2.12,1.5,1.5,0,1,1,2.2,2Zm14.92-45.42a1.51,1.51,0,0,1-1.32,1.66h-.17a1.5,1.5,0,1,1,1.49-1.66Zm-1-6a1.5,1.5,0,0,1-1.14,1.79l-.32,0a1.51,1.51,0,0,1-1.47-1.18,1.5,1.5,0,0,1,2.93-.64Zm-1.63-5.91a1.5,1.5,0,0,1-1,1.9,1.55,1.55,0,0,1-.47.08,1.5,1.5,0,1,1,1.42-2Zm-4.25-6.44A1.5,1.5,0,0,1,115.62,42a1.6,1.6,0,0,1-.63.14,1.51,1.51,0,0,1-.63-2.87ZM108,29.17a1.5,1.5,0,0,1,1.8,2.4,1.52,1.52,0,0,1-.9.3,1.46,1.46,0,0,1-1.2-.6A1.5,1.5,0,0,1,108,29.17Zm2.24,69.18A1.52,1.52,0,0,1,109,99a1.48,1.48,0,0,1-.89-.29,1.5,1.5,0,1,1,2.1-.31ZM111.45,34a1.5,1.5,0,1,1-.52,2.06A1.5,1.5,0,0,1,111.45,34Zm2.17,59.2a1.51,1.51,0,0,1-1.3.74,1.53,1.53,0,0,1-.76-.21,1.5,1.5,0,1,1,2.06-.53Zm2.83-5.44a1.5,1.5,0,1,1-2.73-1.24,1.5,1.5,0,0,1,2.73,1.24Zm2.23-5.71a1.5,1.5,0,0,1-2.85-.94,1.5,1.5,0,1,1,2.85.94Zm1.61-5.92a1.49,1.49,0,0,1-1.46,1.19,1.17,1.17,0,0,1-.32,0,1.5,1.5,0,1,1,1.78-1.15Zm-.52-4.71h-.16a1.48,1.48,0,1,1,.16,0ZM121.58,64a1.5,1.5,0,0,1-3,0v-.22a1.5,1.5,0,1,1,3,0,.49.49,0,0,1,0,.12A.41.41,0,0,1,121.58,64Z"/><path class="cls-1" d="M64,67.54a12.67,12.67,0,0,1-5.5-1.24v3.32a1.84,1.84,0,0,1-1.39,1.78l-.41.1a9.17,9.17,0,0,0,14.56,0l-.61-.15a1.83,1.83,0,0,1-1.39-1.78V66.41A12.7,12.7,0,0,1,64,67.54Z"/><path class="cls-1" d="M78.74,73.37l-3.66-.9a12.83,12.83,0,0,1-22.12,0l-3.7.93a5.48,5.48,0,0,0-4,6.41l2,10H80.79l2-10A5.48,5.48,0,0,0,78.74,73.37ZM76.85,86.11H73.19a1.83,1.83,0,0,1,0-3.66h3.66a1.83,1.83,0,1,1,0,3.66Z"/><path class="cls-1" d="M71.35,41.89a9.16,9.16,0,0,0-16.3,3.66h9A9.18,9.18,0,0,0,71.35,41.89Z"/><path class="cls-1" d="M64,63.88a9.19,9.19,0,0,0,9.18-9.16V47.39A8.58,8.58,0,0,0,73,45.55a12.88,12.88,0,0,1-9,3.67H54.87v5.5A9.17,9.17,0,0,0,64,63.88Z"/></svg>