<?xml version="1.0" encoding="utf-8"?>
<!-- Generator: Adobe Illustrator 16.0.0, SVG Export Plug-In . SVG Version: 6.00 Build 0)  -->
<!DOCTYPE svg PUBLIC "-//W3C//DTD SVG 1.1//EN" "http://www.w3.org/Graphics/SVG/1.1/DTD/svg11.dtd">
<svg version="1.1" id="Layer_1" xmlns="http://www.w3.org/2000/svg" xmlns:xlink="http://www.w3.org/1999/xlink" x="0px" y="0px"
	 width="284px" height="294px" viewBox="0 0 284 294" enable-background="new 0 0 284 294" xml:space="preserve">
<g>
	<g>
		<path fill="#FFFFFF" d="M233.924,20.204c2.691,5.824,5.139,10.414,7.609,14.182c2.439,3.725,4.908,6.636,7.652,9.139
			c2.76,2.521,5.853,4.666,9.517,6.835c3.71,2.202,8.013,4.433,13.161,7.1l3.365,1.746l0.172,0.093l0.011,0.009l3.052,1.595h0.01
			l0.264,0.139l2.173,1.14l0.657,0.349l0.662,0.342l-0.035,0.749l-0.03,0.75l-0.106,2.441c-0.938,21.796-3.037,41.417-6.096,59.089
			c-3.059,17.692-7.07,33.451-11.825,47.49c-4.767,14.082-10.282,26.453-16.332,37.338c-6.053,10.901-12.638,20.313-19.532,28.463
			c-6.957,8.22-14.23,15.158-21.601,21.062s-14.833,10.764-22.171,14.812c-7.318,4.037-14.521,7.277-21.389,9.951
			c-6.873,2.676-13.377,4.776-19.33,6.556l-1.105,0.333l-0.343,0.104L142,292.113l-0.337-0.103l-0.338-0.104l-1.108-0.333
			c-5.952-1.777-12.455-3.88-19.329-6.556c-6.867-2.674-14.071-5.914-21.387-9.951c-7.337-4.049-14.803-8.908-22.176-14.812
			c-7.367-5.9-14.642-12.848-21.596-21.062c-6.896-8.147-13.479-17.562-19.532-28.463c-6.049-10.885-11.569-23.256-16.332-37.338
			c-4.755-14.041-8.772-29.797-11.83-47.495c-3.054-17.665-5.163-37.291-6.099-59.09l-0.102-2.447l-0.027-0.74l-0.033-0.745
			l0.66-0.342l0.658-0.349l2.167-1.14l0.264-0.139h0.013l3.049-1.595l0.012-0.009l0.172-0.093l3.361-1.746
			c5.151-2.667,9.453-4.898,13.167-7.1c3.663-2.169,6.757-4.315,9.518-6.835c2.743-2.502,5.206-5.414,7.653-9.139
			c2.467-3.769,4.917-8.358,7.604-14.182l0.738-1.597l0.222-0.472l0.22-0.48l0.505-0.155l0.51-0.155l0.828-0.252v-0.008l0.838-0.251
			c8.226-2.484,16.092-4.67,23.699-6.547c7.601-1.873,14.907-3.432,22.016-4.674c7.101-1.245,14.052-2.181,20.954-2.8
			c6.876-0.623,13.682-0.932,20.512-0.928c6.815,0.004,13.646,0.317,20.593,0.944c6.96,0.63,14.01,1.571,21.265,2.813
			c7.224,1.241,14.707,2.797,22.536,4.669c7.805,1.865,15.936,4.042,24.492,6.522l1.699,0.496l0.521,0.15l0.518,0.15l0.229,0.488
			l0.22,0.485l0.006-0.004L233.924,20.204L233.924,20.204z M265.111,68.012c-5.137-2.663-9.512-4.946-13.354-7.222
			c-4.129-2.442-7.661-4.886-10.885-7.776c-3.2-2.865-6.058-6.146-8.858-10.267c-2.705-3.99-5.356-8.769-8.199-14.72
			c-7.814-2.23-15.265-4.185-22.404-5.87c-7.32-1.727-14.312-3.168-21.066-4.315c-6.861-1.165-13.494-2.04-19.982-2.621
			c-6.504-0.587-12.895-0.879-19.25-0.879c-6.347,0-12.685,0.285-19.107,0.863c-6.401,0.569-12.917,1.441-19.639,2.605
			c-6.643,1.152-13.453,2.589-20.519,4.307c-6.903,1.677-14.095,3.644-21.652,5.887c-2.846,5.964-5.5,10.743-8.21,14.737
			c-2.801,4.123-5.659,7.4-8.858,10.271c-3.229,2.893-6.759,5.336-10.886,7.779c-3.848,2.275-8.216,4.559-13.357,7.226v0.004
			l-1.024,0.533l-3.274,1.702c1.014,20.192,3.066,38.405,5.969,54.839c2.935,16.616,6.736,31.401,11.211,44.572
			c4.49,13.205,9.661,24.792,15.307,34.959c5.639,10.157,11.77,18.923,18.184,26.504c6.314,7.458,12.913,13.775,19.602,19.153
			c6.697,5.384,13.488,9.839,20.182,13.563c6.613,3.685,13.172,6.676,19.467,9.166c6.196,2.455,12.072,4.408,17.495,6.061
			c5.416-1.65,11.302-3.604,17.497-6.061c6.294-2.49,12.854-5.481,19.467-9.166c6.688-3.727,13.483-8.182,20.178-13.563
			c6.69-5.378,13.291-11.695,19.604-19.153c6.413-7.581,12.546-16.347,18.187-26.504c5.646-10.167,10.814-21.754,15.307-34.959
			c4.473-13.167,8.273-27.952,11.207-44.572c2.902-16.431,4.957-34.647,5.968-54.843l-3.271-1.698l-1.028-0.533v-0.009H265.111z"/>
		<polygon fill="#FFFFFF" points="199.709,26.908 199.709,97.313 90.25,97.313 		"/>
		<path fill="#FFFFFF" d="M78.778,24.75C66.866,54.104,47.554,77.812,19.302,97.313h59.477L78.778,24.75L78.778,24.75z"/>
		<polygon fill="#FFFFFF" points="130.372,139.292 192.982,101.591 89.161,101.591 		"/>
		<polygon fill="#FFFFFF" points="83.126,24.75 135.867,24.75 195.745,24.75 83.126,97.313 		"/>
		<polygon fill="#FFFFFF" points="112.573,178.397 140.342,157.37 83.572,102.72 		"/>
		<polygon fill="#FFFFFF" points="169.872,179.953 198.525,102.771 132.512,143.795 		"/>
		<polygon fill="#FFFFFF" points="141.881,269.003 168.622,186.079 142.779,160.472 113.601,183.603 		"/>
		<path fill="#FFFFFF" d="M204.062,24.75c11.901,29.354,31.22,53.063,59.474,72.564h-59.474V24.75L204.062,24.75z"/>
		<path fill="#FFFFFF" d="M141.881,269.003C109.037,204.211,68.299,143.82,19.302,101.591h59.509L141.881,269.003z"/>
		<path fill="#FFFFFF" d="M141.881,269.003c32.844-64.792,73.816-125.183,122.812-167.412h-60.631L141.881,269.003z"/>
	</g>
	<g>
		<linearGradient id="SVGID_1_" gradientUnits="userSpaceOnUse" x1="1.7739" y1="147" x2="282.2285" y2="147">
			<stop  offset="0" style="stop-color:#CCCCCC"/>
			<stop  offset="0.5" style="stop-color:#FFFFFF"/>
			<stop  offset="1" style="stop-color:#CCCCCC"/>
		</linearGradient>
		<path fill="url(#SVGID_1_)" d="M233.924,20.204c2.691,5.824,5.139,10.414,7.609,14.182c2.439,3.725,4.908,6.636,7.652,9.139
			c2.76,2.521,5.853,4.666,9.517,6.835c3.71,2.202,8.013,4.433,13.161,7.1l3.365,1.746l0.172,0.093l0.011,0.009l3.052,1.595h0.01
			l0.264,0.139l2.173,1.14l0.657,0.349l0.662,0.342l-0.035,0.749l-0.03,0.75l-0.106,2.441c-0.938,21.796-3.037,41.417-6.096,59.089
			c-3.059,17.692-7.07,33.451-11.825,47.49c-4.767,14.082-10.282,26.453-16.332,37.338c-6.053,10.901-12.638,20.313-19.532,28.463
			c-6.957,8.22-14.23,15.158-21.601,21.062s-14.833,10.764-22.171,14.812c-7.318,4.037-14.521,7.277-21.389,9.951
			c-6.873,2.676-13.377,4.776-19.33,6.556l-1.105,0.333l-0.343,0.104L142,292.113l-0.337-0.103l-0.338-0.104l-1.108-0.333
			c-5.952-1.777-12.455-3.88-19.329-6.556c-6.867-2.674-14.071-5.914-21.387-9.951c-7.337-4.049-14.803-8.908-22.176-14.812
			c-7.367-5.9-14.642-12.848-21.596-21.062c-6.896-8.147-13.479-17.562-19.532-28.463c-6.049-10.885-11.569-23.256-16.332-37.338
			c-4.755-14.041-8.772-29.797-11.83-47.495c-3.054-17.665-5.163-37.291-6.099-59.09l-0.102-2.447l-0.027-0.74l-0.033-0.745
			l0.66-0.342l0.658-0.349l2.167-1.14l0.264-0.139h0.013l3.049-1.595l0.012-0.009l0.172-0.093l3.361-1.746
			c5.151-2.667,9.453-4.898,13.167-7.1c3.663-2.169,6.757-4.315,9.518-6.835c2.743-2.502,5.206-5.414,7.653-9.139
			c2.467-3.769,4.917-8.358,7.604-14.182l0.738-1.597l0.222-0.472l0.22-0.48l0.505-0.155l0.51-0.155l0.828-0.252v-0.008l0.838-0.251
			c8.226-2.484,16.092-4.67,23.699-6.547c7.601-1.873,14.907-3.432,22.016-4.674c7.101-1.245,14.052-2.181,20.954-2.8
			c6.876-0.623,13.682-0.932,20.512-0.928c6.815,0.004,13.646,0.317,20.593,0.944c6.96,0.63,14.01,1.571,21.265,2.813
			c7.224,1.241,14.707,2.797,22.536,4.669c7.805,1.865,15.936,4.042,24.492,6.522l1.699,0.496l0.521,0.15l0.518,0.15l0.229,0.488
			l0.22,0.485l0.006-0.004L233.924,20.204L233.924,20.204z M265.111,68.012c-5.137-2.663-9.512-4.946-13.354-7.222
			c-4.129-2.442-7.661-4.886-10.885-7.776c-3.2-2.865-6.058-6.146-8.858-10.267c-2.705-3.99-5.356-8.769-8.199-14.72
			c-7.814-2.23-15.265-4.185-22.404-5.87c-7.32-1.727-14.312-3.168-21.066-4.315c-6.861-1.165-13.494-2.04-19.982-2.621
			c-6.504-0.587-12.895-0.879-19.25-0.879c-6.347,0-12.685,0.285-19.107,0.863c-6.401,0.569-12.917,1.441-19.639,2.605
			c-6.643,1.152-13.453,2.589-20.519,4.307c-6.903,1.677-14.095,3.644-21.652,5.887c-2.846,5.964-5.5,10.743-8.21,14.737
			c-2.801,4.123-5.659,7.4-8.858,10.271c-3.229,2.893-6.759,5.336-10.886,7.779c-3.848,2.275-8.216,4.559-13.357,7.226v0.004
			l-1.024,0.533l-3.274,1.702c1.014,20.192,3.066,38.405,5.969,54.839c2.935,16.616,6.736,31.401,11.211,44.572
			c4.49,13.205,9.661,24.792,15.307,34.959c5.639,10.157,11.77,18.923,18.184,26.504c6.314,7.458,12.913,13.775,19.602,19.153
			c6.697,5.384,13.488,9.839,20.182,13.563c6.613,3.685,13.172,6.676,19.467,9.166c6.196,2.455,12.072,4.408,17.495,6.061
			c5.416-1.65,11.302-3.604,17.497-6.061c6.294-2.49,12.854-5.481,19.467-9.166c6.688-3.727,13.483-8.182,20.178-13.563
			c6.69-5.378,13.291-11.695,19.604-19.153c6.413-7.581,12.546-16.347,18.187-26.504c5.646-10.167,10.814-21.754,15.307-34.959
			c4.473-13.167,8.273-27.952,11.207-44.572c2.902-16.431,4.957-34.647,5.968-54.843l-3.271-1.698l-1.028-0.533v-0.009H265.111z"/>
		<linearGradient id="SVGID_2_" gradientUnits="userSpaceOnUse" x1="1.7739" y1="147" x2="282.2285" y2="147">
			<stop  offset="0" style="stop-color:#CCCCCC"/>
			<stop  offset="0.5" style="stop-color:#FFFFFF"/>
			<stop  offset="1" style="stop-color:#CCCCCC"/>
		</linearGradient>
		<polygon fill="url(#SVGID_2_)" points="199.709,26.908 199.709,97.313 90.25,97.313 		"/>
		<linearGradient id="SVGID_3_" gradientUnits="userSpaceOnUse" x1="1.7739" y1="147" x2="282.2285" y2="147">
			<stop  offset="0" style="stop-color:#CCCCCC"/>
			<stop  offset="0.5" style="stop-color:#FFFFFF"/>
			<stop  offset="1" style="stop-color:#CCCCCC"/>
		</linearGradient>
		<path fill="url(#SVGID_3_)" d="M78.778,24.75C66.866,54.104,47.554,77.812,19.302,97.313h59.477L78.778,24.75L78.778,24.75z"/>
		<linearGradient id="SVGID_4_" gradientUnits="userSpaceOnUse" x1="1.7739" y1="147" x2="282.2285" y2="147">
			<stop  offset="0" style="stop-color:#CCCCCC"/>
			<stop  offset="0.5" style="stop-color:#FFFFFF"/>
			<stop  offset="1" style="stop-color:#CCCCCC"/>
		</linearGradient>
		<polygon fill="url(#SVGID_4_)" points="130.372,139.292 192.982,101.591 89.161,101.591 		"/>
		<linearGradient id="SVGID_5_" gradientUnits="userSpaceOnUse" x1="1.7739" y1="147" x2="282.2285" y2="147">
			<stop  offset="0" style="stop-color:#CCCCCC"/>
			<stop  offset="0.5" style="stop-color:#FFFFFF"/>
			<stop  offset="1" style="stop-color:#CCCCCC"/>
		</linearGradient>
		<polygon fill="url(#SVGID_5_)" points="83.126,24.75 135.867,24.75 195.745,24.75 83.126,97.313 		"/>
		<linearGradient id="SVGID_6_" gradientUnits="userSpaceOnUse" x1="1.7739" y1="147" x2="282.2285" y2="147">
			<stop  offset="0" style="stop-color:#CCCCCC"/>
			<stop  offset="0.5" style="stop-color:#FFFFFF"/>
			<stop  offset="1" style="stop-color:#CCCCCC"/>
		</linearGradient>
		<polygon fill="url(#SVGID_6_)" points="112.573,178.397 140.342,157.37 83.572,102.72 		"/>
		<linearGradient id="SVGID_7_" gradientUnits="userSpaceOnUse" x1="1.7739" y1="147" x2="282.2285" y2="147">
			<stop  offset="0" style="stop-color:#CCCCCC"/>
			<stop  offset="0.5" style="stop-color:#FFFFFF"/>
			<stop  offset="1" style="stop-color:#CCCCCC"/>
		</linearGradient>
		<polygon fill="url(#SVGID_7_)" points="169.872,179.953 198.525,102.771 132.512,143.795 		"/>
		<linearGradient id="SVGID_8_" gradientUnits="userSpaceOnUse" x1="1.7739" y1="147" x2="282.2285" y2="147">
			<stop  offset="0" style="stop-color:#CCCCCC"/>
			<stop  offset="0.5" style="stop-color:#FFFFFF"/>
			<stop  offset="1" style="stop-color:#CCCCCC"/>
		</linearGradient>
		<polygon fill="url(#SVGID_8_)" points="141.881,269.003 168.622,186.079 142.779,160.472 113.601,183.603 		"/>
		<linearGradient id="SVGID_9_" gradientUnits="userSpaceOnUse" x1="1.7739" y1="147" x2="282.2285" y2="147">
			<stop  offset="0" style="stop-color:#CCCCCC"/>
			<stop  offset="0.5" style="stop-color:#FFFFFF"/>
			<stop  offset="1" style="stop-color:#CCCCCC"/>
		</linearGradient>
		<path fill="url(#SVGID_9_)" d="M204.062,24.75c11.901,29.354,31.22,53.063,59.474,72.564h-59.474V24.75L204.062,24.75z"/>
		<linearGradient id="SVGID_10_" gradientUnits="userSpaceOnUse" x1="1.7739" y1="147" x2="282.2285" y2="147">
			<stop  offset="0" style="stop-color:#CCCCCC"/>
			<stop  offset="0.5" style="stop-color:#FFFFFF"/>
			<stop  offset="1" style="stop-color:#CCCCCC"/>
		</linearGradient>
		<path fill="url(#SVGID_10_)" d="M141.881,269.003C109.037,204.211,68.299,143.82,19.302,101.591h59.509L141.881,269.003z"/>
		<linearGradient id="SVGID_11_" gradientUnits="userSpaceOnUse" x1="1.7739" y1="147" x2="282.2285" y2="147">
			<stop  offset="0" style="stop-color:#CCCCCC"/>
			<stop  offset="0.5" style="stop-color:#FFFFFF"/>
			<stop  offset="1" style="stop-color:#CCCCCC"/>
		</linearGradient>
		<path fill="url(#SVGID_11_)" d="M141.881,269.003c32.844-64.792,73.816-125.183,122.812-167.412h-60.631L141.881,269.003z"/>
	</g>
</g>
</svg>
