<?xml version="1.0" encoding="utf-8"?>
<!-- Generator: Adobe Illustrator 24.1.0, SVG Export Plug-In . SVG Version: 6.00 Build 0)  -->
<svg version="1.1" id="Layer_2_1_" xmlns="http://www.w3.org/2000/svg" xmlns:xlink="http://www.w3.org/1999/xlink" x="0px" y="0px"
	 viewBox="0 0 128 128" style="enable-background:new 0 0 128 128;" xml:space="preserve">
<style type="text/css">
	.st0{fill:#FFFFFF;}
	.st1{fill:#F8F8F8;}
</style>
<path class="st0" d="M73.8,52.1c0.2-0.2,0.5-0.3,0.8-0.4c-1.8-6.1-8.2-9.6-14.2-7.8c-3.8,1.1-6.7,4-7.8,7.8c0.5,0.1,0.9,0.3,1.2,0.6
	c1.4-5.6,7-9,12.5-7.6C70,45.6,72.9,48.5,73.8,52.1L73.8,52.1z"/>
<path class="st1" d="M124.7,69.3L128,64l-3.3-5.3l2.3-5.8l-4.2-4.7l1.3-6.1l-4.9-3.9l0.2-6.2l-5.5-3l-0.9-6.1l-5.9-2l-2-5.9L99,14.1
	l-3-5.5l-6.2,0.2l-3.9-4.9l-6.1,1.3L75.1,1l-5.8,2.3L64,0l-5.3,3.3L52.9,1l-4.7,4.1l-6.1-1.3l-3.9,4.9L32,8.6l-3,5.5L22.9,15l-2,5.9
	L15,22.9L14.1,29l-5.5,3l0.2,6.2l-4.9,3.9l1.3,6.1L1,52.9l2.3,5.8L0,64l3.3,5.3L1,75.1l4.2,4.7l-1.3,6.1l4.9,3.9L8.6,96l5.5,3
	l0.9,6.2l5.9,2l2,5.8l6.2,0.9l3,5.5l6.2-0.2l3.9,4.9l6.1-1.3l4.6,4.2l5.8-2.3L64,128l5.3-3.3l5.8,2.3l4.7-4.2l6.1,1.3l3.9-4.9
	l6.2,0.2l3-5.5l6.2-0.9l2-5.9l5.9-2l0.9-6.2l5.5-3l-0.2-6.2l4.9-3.9l-1.3-6.1l4-4.6L124.7,69.3z M121.2,57.6
	c0.1,0.8-0.5,1.6-1.3,1.7h-0.2c-0.8,0-1.5-0.7-1.5-1.5c0-0.8,0.7-1.5,1.5-1.5C120.5,56.3,121.1,56.9,121.2,57.6z M120.2,51.6
	c0.2,0.8-0.3,1.6-1.1,1.8c0,0,0,0,0,0h-0.3c-0.7,0-1.3-0.5-1.5-1.2c-0.2-0.8,0.4-1.6,1.2-1.8C119.3,50.4,120,50.8,120.2,51.6
	L120.2,51.6z M118.6,45.7c0.3,0.8-0.2,1.6-1,1.9c0,0,0,0,0,0c-0.2,0.1-0.3,0.1-0.5,0.1c-0.8,0-1.5-0.7-1.5-1.5
	c0-0.8,0.7-1.5,1.5-1.5C117.8,44.7,118.3,45.1,118.6,45.7L118.6,45.7z M114.3,39.3c0.8-0.3,1.6,0.1,1.9,0.9c0.2,0.7,0,1.4-0.6,1.8
	c-0.2,0.1-0.4,0.1-0.6,0.1c-0.8,0-1.5-0.7-1.5-1.5C113.5,40,113.8,39.5,114.3,39.3L114.3,39.3z M108,29.2c0.7-0.5,1.6-0.4,2.1,0.3
	c0.5,0.7,0.4,1.6-0.3,2.1c-0.3,0.2-0.6,0.3-0.9,0.3c-0.5,0-0.9-0.2-1.2-0.6C107.2,30.6,107.3,29.7,108,29.2z M104,24.7
	c0.6-0.6,1.6-0.5,2.1,0.1s0.5,1.6-0.1,2.1c-0.6,0.6-1.5,0.5-2.1-0.1l0,0C103.4,26.2,103.4,25.3,104,24.7z M99.6,20.7
	c0.6-0.6,1.5-0.7,2.1-0.1c0.6,0.6,0.7,1.5,0.1,2.1c-0.5,0.6-1.5,0.7-2.1,0.2c0,0,0,0,0,0C99.1,22.3,99,21.4,99.6,20.7
	C99.6,20.7,99.6,20.7,99.6,20.7L99.6,20.7z M94.8,17.1c0.4-0.7,1.4-0.9,2.1-0.5s0.9,1.4,0.5,2.1c0,0.1-0.1,0.1-0.1,0.2
	c-0.5,0.7-1.4,0.8-2.1,0.4c0,0,0,0,0,0C94.5,18.8,94.3,17.8,94.8,17.1C94.8,17.1,94.8,17.1,94.8,17.1L94.8,17.1z M89.6,14.1
	c0.4-0.7,1.3-1,2-0.6c0.7,0.4,1,1.3,0.6,2l0,0c-0.3,0.5-0.8,0.8-1.3,0.8c-0.3,0-0.5-0.1-0.7-0.2C89.5,15.8,89.2,14.9,89.6,14.1
	C89.7,14.1,89.7,14.1,89.6,14.1L89.6,14.1z M84.2,11.7c0.3-0.8,1.2-1.1,2-0.8c0.8,0.3,1.1,1.2,0.8,2c-0.2,0.6-0.8,0.9-1.4,0.9
	c-0.2,0-0.4-0.1-0.6-0.2C84.3,13.3,83.9,12.4,84.2,11.7L84.2,11.7z M78.6,9.8c0.2-0.8,1.1-1.2,1.9-1c0.8,0.2,1.2,1.1,1,1.9
	c-0.2,0.6-0.8,1.1-1.4,1.1c-0.1,0-0.3,0-0.4-0.1l0,0C78.8,11.4,78.3,10.6,78.6,9.8C78.6,9.8,78.6,9.8,78.6,9.8z M72.7,8.5
	c0.1-0.8,0.9-1.4,1.7-1.2s1.4,0.9,1.2,1.7c-0.1,0.7-0.7,1.2-1.5,1.2c-0.1,0-0.2,0-0.3,0C73.1,10.2,72.6,9.4,72.7,8.5
	C72.7,8.6,72.7,8.6,72.7,8.5z M68.4,6.5c0.8,0,1.5,0.7,1.4,1.6s-0.7,1.5-1.6,1.4h-0.1c-0.8-0.1-1.4-0.8-1.4-1.6
	C66.8,7.1,67.6,6.5,68.4,6.5z M62.3,6.4c0.8,0,1.5,0.6,1.5,1.5c0,0,0,0,0,0c0,0.8-0.6,1.5-1.5,1.5c-0.8,0-1.5-0.6-1.5-1.5
	C60.8,7.1,61.4,6.4,62.3,6.4C62.3,6.4,62.3,6.4,62.3,6.4L62.3,6.4z M56.1,6.9c0.8-0.1,1.6,0.5,1.7,1.3s-0.5,1.6-1.3,1.7h-0.2
	c-0.8,0.1-1.5-0.6-1.6-1.4C54.7,7.7,55.3,7,56.1,6.9C56.1,6.9,56.1,6.9,56.1,6.9z M50.1,8C51,7.9,51.8,8.4,52,9.2
	c0.2,0.8-0.3,1.6-1.1,1.8c-0.1,0-0.2,0-0.4,0c-0.8,0-1.5-0.7-1.5-1.5C49,8.8,49.5,8.2,50.1,8L50.1,8z M44.3,9.8c0.8-0.3,1.6,0,2,0.8
	s0,1.6-0.8,2c-0.1,0-0.1,0.1-0.2,0.1c-0.2,0.1-0.3,0.1-0.5,0.1c-0.8,0-1.5-0.7-1.5-1.5C43.2,10.6,43.6,10.1,44.3,9.8L44.3,9.8z
	 M64.1,19.5c8.6,0,17,2.5,24.2,7.2l-15,15c-0.1,0.1-0.1,0.1-0.1,0.2c-2.9-1.2-5.9-1.8-9-1.8c-3.8,0-7.6,1-10.9,2.8l-15-15
	C45.8,22.4,54.9,19.5,64.1,19.5z M63.8,66.5c-5.7,0-10.4-4.7-10.4-10.4l0,0c-0.4,0.3-0.8,0.4-1.3,0.4c-1.3,0-2.4-1.1-2.4-2.4
	c0-0.9,0.5-1.7,1.3-2.1c1.7-6.9,8.6-11.1,15.5-9.4c4.6,1.1,8.2,4.7,9.4,9.3c1.2,0.4,1.9,1.8,1.4,3c-0.3,0.9-1.2,1.6-2.2,1.6
	c-0.3,0-0.7-0.1-1-0.2C74.1,61.9,69.5,66.5,63.8,66.5L63.8,66.5z M67.3,67.7l-3,5.1l-3.1-5.1L67.3,67.7L67.3,67.7z M58.4,66.4
	c-0.1,0.2-0.1,0.5,0,0.7l5.3,8.8c0.1,0.2,0.3,0.3,0.6,0.3c0.2,0,0.5-0.1,0.6-0.3l5.2-8.9c0.1-0.1,0.1-0.3,0.1-0.4
	c5.4,0.6,8.8,4.5,9.1,10.2c0.1,1.4,0.6,5.1-0.7,5.8c-7.3,4-18.3,5-29.6,0.1c-0.6-0.2-0.2-3.3,0-5.8C49.5,70.5,52.2,66.4,58.4,66.4
	L58.4,66.4z M38.6,12.2c0.7-0.4,1.6-0.1,2,0.6s0.1,1.6-0.6,2c0,0-0.1,0-0.1,0.1c-0.2,0.1-0.4,0.2-0.7,0.2c-0.8,0-1.5-0.7-1.5-1.5
	C37.8,13,38.1,12.5,38.6,12.2z M33.3,15.2c0.7-0.4,1.6-0.2,2.1,0.5c0.4,0.7,0.2,1.6-0.5,2.1c-0.2,0.1-0.5,0.2-0.8,0.2
	c-0.8,0-1.5-0.7-1.5-1.5C32.6,16,32.8,15.5,33.3,15.2z M28.3,18.8c0.6-0.5,1.6-0.5,2.1,0.2c0.5,0.6,0.5,1.6-0.2,2.1
	c0,0-0.1,0.1-0.1,0.1c-0.3,0.2-0.6,0.3-0.9,0.3c-0.5,0-0.9-0.2-1.2-0.6C27.5,20.2,27.6,19.3,28.3,18.8L28.3,18.8z M23.7,22.8
	c0.6-0.6,1.6-0.6,2.1,0s0.6,1.6,0,2.1l0,0c-0.3,0.3-0.7,0.4-1,0.4c-0.4,0-0.8-0.2-1.1-0.5C23.1,24.4,23,23.4,23.7,22.8
	C23.6,22.8,23.7,22.8,23.7,22.8L23.7,22.8z M15.9,32.3c0.4-0.7,1.3-1,2.1-0.5c0.7,0.4,1,1.3,0.5,2.1c0,0-0.1,0.1-0.1,0.1
	c-0.3,0.4-0.7,0.7-1.2,0.7c-0.3,0-0.6-0.1-0.8-0.2C15.6,33.9,15.4,33,15.9,32.3C15.9,32.3,15.9,32.3,15.9,32.3L15.9,32.3z
	 M12.8,37.5c0.4-0.7,1.3-1,2-0.6c0.7,0.4,1,1.3,0.6,2c-0.3,0.5-0.8,0.8-1.3,0.8c-0.8,0-1.5-0.7-1.5-1.5C12.6,38,12.7,37.8,12.8,37.5
	z M10.2,43.1c0.3-0.8,1.1-1.2,1.9-0.9s1.2,1.1,0.9,1.9c-0.2,0.6-0.8,1-1.4,1c-0.2,0-0.4,0-0.5-0.1C10.3,44.7,10,43.9,10.2,43.1
	L10.2,43.1z M8.3,49c0.2-0.8,1-1.3,1.8-1.2c0.8,0.2,1.3,1,1.2,1.8c0,0.1,0,0.1-0.1,0.2c-0.2,0.7-0.8,1.1-1.4,1.1c-0.1,0-0.3,0-0.4,0
	C8.6,50.6,8.1,49.8,8.3,49C8.3,49,8.3,49,8.3,49z M7.1,55L7.1,55c0.1-0.8,0.9-1.4,1.7-1.2c0.8,0.1,1.4,0.9,1.2,1.7
	c-0.1,0.7-0.7,1.3-1.5,1.3c-0.1,0-0.2,0-0.2,0C7.5,56.6,6.9,55.8,7.1,55C7,55,7,55,7.1,55z M8,59.6c0.8,0,1.5,0.7,1.4,1.6l0,0
	c0,0.8-0.7,1.4-1.5,1.4H7.8c-0.8,0-1.5-0.7-1.4-1.6C6.5,60.2,7.2,59.6,8,59.6L8,59.6z M6.4,67.2c0-0.8,0.6-1.5,1.4-1.6
	s1.5,0.6,1.6,1.4c0,0.8-0.6,1.5-1.4,1.6c0,0,0,0,0,0H7.9C7.1,68.6,6.5,68,6.4,67.2z M7.1,73.3c-0.1-0.8,0.4-1.6,1.2-1.7
	c0.8-0.1,1.6,0.4,1.7,1.2c0.1,0.8-0.4,1.6-1.2,1.7c0,0,0,0,0,0c-0.1,0-0.2,0-0.2,0C7.8,74.5,7.2,74,7.1,73.3z M8.4,79.3
	c-0.2-0.8,0.3-1.6,1.1-1.8c0.8-0.2,1.6,0.3,1.8,1.1c0.2,0.8-0.3,1.6-1.1,1.8c-0.1,0-0.3,0-0.4,0.1C9.2,80.4,8.6,79.9,8.4,79.3
	L8.4,79.3z M11.7,86c-0.6,0-1.2-0.4-1.4-1l0,0c-0.3-0.8,0.1-1.6,0.9-1.9c0.8-0.3,1.6,0.1,1.9,0.9c0.3,0.8-0.1,1.6-0.8,1.9
	C12.1,85.9,11.9,86,11.7,86z M14.9,91.3c-0.7,0.4-1.6,0.2-2.1-0.5c-0.4-0.7-0.2-1.6,0.5-2.1c0.1,0,0.1-0.1,0.2-0.1
	c0.7-0.4,1.6-0.2,2.1,0.5c0.4,0.7,0.2,1.6-0.5,2.1C15,91.2,15,91.2,14.9,91.3z M18.1,96.3c-0.7,0.5-1.6,0.3-2.1-0.4
	c-0.5-0.7-0.3-1.6,0.4-2.1c0.7-0.5,1.6-0.3,2.1,0.4C19,95,18.8,95.9,18.1,96.3L18.1,96.3z M19.5,27.3c0.5-0.6,1.5-0.7,2.1-0.2
	c0.6,0.5,0.7,1.5,0.2,2.1c-0.3,0.3-0.7,0.5-1.2,0.5c-0.4,0-0.7-0.1-1-0.4C19,28.9,19,28,19.5,27.3L19.5,27.3z M21.8,101
	c-0.3,0.2-0.6,0.4-1,0.3c-0.8,0-1.5-0.7-1.5-1.5s0.7-1.5,1.5-1.5s1.5,0.7,1.5,1.5C22.3,100.3,22.1,100.7,21.8,101z M26,105.3
	c-0.3,0.3-0.7,0.5-1.1,0.4c-0.8,0-1.5-0.7-1.5-1.5c0-0.8,0.7-1.5,1.5-1.5c0.8,0,1.5,0.7,1.5,1.5C26.4,104.7,26.3,105,26,105.3z
	 M30.6,109.1c-0.5,0.6-1.5,0.8-2.1,0.2c-0.6-0.5-0.8-1.5-0.2-2.1c0.5-0.6,1.5-0.8,2.1-0.2C31,107.5,31.1,108.5,30.6,109.1z
	 M27.1,88.8c-10-14.9-10.1-34.3-0.2-49.3L42,54.6c-1.3,2.9-1.9,6.2-1.8,9.4c0.1,3.3,0.9,6.5,2.2,9.5L27.1,88.8z M35.5,112.4
	c-0.3,0.4-0.8,0.7-1.3,0.7c-0.3,0-0.6-0.1-0.8-0.2c-0.7-0.4-1-1.3-0.6-2c0.4-0.7,1.3-1,2-0.6c0,0,0.1,0,0.1,0.1
	C35.8,110.8,36,111.7,35.5,112.4C35.5,112.4,35.5,112.4,35.5,112.4z M40.8,115.2c-0.4,0.7-1.3,1.1-2,0.7c-0.7-0.4-1.1-1.3-0.7-2
	s1.3-1.1,2-0.7c0,0,0,0,0,0C40.9,113.5,41.2,114.4,40.8,115.2z M46.4,117.3c-0.2,0.6-0.8,1-1.4,1c-0.2,0-0.3,0-0.5-0.1
	c-0.8-0.3-1.2-1.1-0.9-1.9c0.3-0.8,1.1-1.2,1.9-0.9C46.3,115.7,46.7,116.6,46.4,117.3C46.4,117.3,46.4,117.3,46.4,117.3L46.4,117.3z
	 M52.2,118.9c-0.2,0.7-0.8,1.1-1.4,1.1c-0.1,0-0.2,0-0.4,0c-0.8-0.2-1.3-1-1.1-1.8c0.2-0.8,1-1.3,1.8-1.1
	C51.9,117.3,52.4,118.1,52.2,118.9z M58.1,119.8c-0.1,0.7-0.7,1.3-1.5,1.3h-0.2c-0.8-0.1-1.4-0.9-1.3-1.7c0.1-0.8,0.9-1.4,1.7-1.3
	C57.6,118.3,58.2,119,58.1,119.8C58.1,119.8,58.1,119.8,58.1,119.8L58.1,119.8z M62.5,121.6L62.5,121.6c-0.8,0-1.5-0.7-1.5-1.5
	c0-0.8,0.7-1.5,1.5-1.5s1.5,0.7,1.5,1.5c0,0,0,0,0,0.1C64,121,63.3,121.6,62.5,121.6L62.5,121.6z M68.6,121.4h-0.1
	c-0.9,0-1.5-0.8-1.5-1.6c0-0.9,0.8-1.5,1.6-1.5c0.9,0,1.5,0.8,1.5,1.6C70.1,120.7,69.4,121.4,68.6,121.4z M74.7,120.6
	c-0.1,0-0.2,0-0.3,0c-0.8-0.1-1.5-0.8-1.4-1.7c0.1-0.8,0.8-1.5,1.7-1.4c0.8,0.1,1.5,0.8,1.4,1.7C76,120,75.4,120.6,74.7,120.6z
	 M80.7,119.2c-0.1,0-0.3,0.1-0.4,0.1c-0.8,0-1.5-0.7-1.5-1.5c0-0.8,0.7-1.5,1.5-1.5c0.8,0,1.5,0.7,1.5,1.5
	C81.8,118.4,81.3,119,80.7,119.2z M86.5,117.1c-0.8,0.3-1.6-0.1-2-0.8c-0.3-0.8,0.1-1.6,0.8-2c0.7-0.3,1.6,0,1.9,0.8
	C87.6,115.8,87.2,116.7,86.5,117.1C86.4,117.1,86.4,117.1,86.5,117.1L86.5,117.1z M64.1,108.6c-9.2,0-18.1-2.8-25.6-8.1l14.8-14.8
	c3.2,1.6,6.8,2.3,10.3,2.3c2.5,0,4.9-0.4,7.2-1.2l1-0.3l0,0c0.5-0.2,0.9-0.3,1.3-0.5l0,0h0.1l15.2,15.3
	C81.3,106,72.8,108.6,64.1,108.6z M91.9,114.4c-0.2,0.1-0.5,0.2-0.7,0.2c-0.8,0-1.5-0.7-1.5-1.5s0.7-1.5,1.5-1.5
	c0.8,0,1.5,0.7,1.5,1.5C92.7,113.6,92.4,114.1,91.9,114.4z M97.1,111.1c-0.7,0.5-1.6,0.3-2.1-0.4c-0.5-0.7-0.3-1.6,0.4-2.1
	c0.7-0.5,1.6-0.3,2.1,0.4c0,0,0,0,0,0C97.9,109.7,97.8,110.6,97.1,111.1C97.1,111.1,97.1,111.1,97.1,111.1z M101.9,107.3
	L101.9,107.3c-0.6,0.5-1.6,0.5-2.1-0.1c-0.5-0.6-0.5-1.6,0.1-2.1c0.6-0.5,1.6-0.5,2.1,0.1c0,0,0,0,0,0
	C102.6,105.8,102.6,106.8,101.9,107.3C101.9,107.3,101.9,107.3,101.9,107.3z M106.3,103.1c-0.6,0.6-1.5,0.6-2.1,0.1c0,0,0,0,0,0
	c-0.6-0.6-0.6-1.5-0.1-2.1c0.5-0.7,1.4-0.9,2.1-0.4c0.7,0.5,0.9,1.4,0.4,2.1C106.5,102.8,106.4,102.9,106.3,103.1L106.3,103.1z
	 M100.4,89.9L85.5,75c1.9-3.4,2.8-7.2,2.6-11c-0.1-3.4-0.9-6.7-2.4-9.8c0.1,0,0.1-0.1,0.2-0.1L101,39
	C111.5,54.4,111.3,74.7,100.4,89.9L100.4,89.9z M110.2,98.3c-0.3,0.4-0.7,0.6-1.2,0.6c-0.3,0-0.6-0.1-0.9-0.3
	c-0.7-0.5-0.8-1.4-0.3-2.1c0.5-0.7,1.4-0.8,2.1-0.3C110.6,96.8,110.7,97.7,110.2,98.3L110.2,98.3z M111.4,34
	c0.7-0.4,1.6-0.2,2.1,0.5s0.2,1.6-0.5,2.1c-0.7,0.4-1.6,0.2-2.1-0.5C110.5,35.3,110.7,34.4,111.4,34C111.4,34,111.4,34,111.4,34z
	 M113.6,93.2c-0.3,0.5-0.8,0.7-1.3,0.7c-0.3,0-0.5-0.1-0.8-0.2c-0.7-0.4-0.9-1.3-0.5-2.1s1.3-0.9,2.1-0.5
	C113.8,91.6,114,92.5,113.6,93.2z M116.4,87.8c-0.3,0.8-1.2,1.1-2,0.8c-0.8-0.3-1.1-1.2-0.8-2c0,0,0-0.1,0-0.1c0.4-0.7,1.3-1,2-0.7
	C116.4,86.2,116.8,87,116.4,87.8z M118.7,82c-0.3,0.8-1.1,1.2-1.9,1c-0.8-0.3-1.2-1.1-1-1.9l0,0c0.3-0.8,1.1-1.2,1.9-1
	C118.5,80.4,118.9,81.3,118.7,82z M120.3,76.1c-0.1,0.7-0.8,1.2-1.5,1.2c-0.1,0-0.2,0-0.3,0c-0.8-0.2-1.3-1-1.2-1.8
	c0.2-0.8,1-1.3,1.8-1.2C119.9,74.6,120.5,75.4,120.3,76.1C120.3,76.2,120.3,76.2,120.3,76.1L120.3,76.1z M119.8,71.4h-0.2
	c-0.8,0-1.4-0.7-1.4-1.6s0.7-1.4,1.6-1.4s1.4,0.7,1.4,1.6C121.1,70.8,120.5,71.4,119.8,71.4z M121.6,64c0,0.8-0.7,1.5-1.5,1.5
	s-1.5-0.7-1.5-1.5v-0.2c0-0.8,0.7-1.5,1.5-1.5s1.5,0.7,1.5,1.5c0,0,0,0.1,0,0.1C121.6,63.9,121.6,64,121.6,64z"/>
</svg>
