<?xml version="1.0" encoding="utf-8"?>
<!-- Generator: Adobe Illustrator 24.1.0, SVG Export Plug-In . SVG Version: 6.00 Build 0)  -->
<svg version="1.1" id="Layer_1" xmlns="http://www.w3.org/2000/svg" xmlns:xlink="http://www.w3.org/1999/xlink" x="0px" y="0px"
	 viewBox="0 0 319 76" style="enable-background:new 0 0 319 76;" xml:space="preserve">
<style type="text/css">
	.st0{fill:#566473;}
</style>
<g>
	<g>
		<g>
			<path class="st0" d="M98.9,43.5c-0.4,0-0.6-0.1-0.7-0.2S98,42.9,98,42.6c0-0.3,0.1-0.5,0.2-0.7c0.1-0.1,0.4-0.2,0.7-0.2h9.2
				c0-0.3,0.1-0.7,0.1-1c0-0.4,0.1-0.6,0.2-0.8s0.4-0.2,0.7-0.2c0.3,0,0.6,0.1,0.7,0.2s0.2,0.4,0.2,0.8c0,0.4,0,0.7-0.1,1.1h9.2
				c0.3,0,0.6,0.1,0.7,0.2c0.1,0.1,0.2,0.4,0.2,0.7s-0.1,0.6-0.2,0.7s-0.4,0.2-0.7,0.2h-8.5c0.4,0.5,0.9,1,1.4,1.4s1.1,0.8,1.8,1.2
				c0.7,0.3,1.4,0.7,2.3,1s1.8,0.6,3,0.8c0.3,0.1,0.6,0.2,0.8,0.2s0.4,0.2,0.5,0.3s0.2,0.2,0.2,0.4c0,0.1,0,0.3,0,0.5
				s-0.1,0.4-0.1,0.5c-0.1,0.1-0.2,0.2-0.3,0.2c-0.1,0-0.3,0-0.5,0s-0.5-0.1-0.9-0.2c-1.2-0.3-2.3-0.6-3.3-1
				c-0.9-0.3-1.8-0.7-2.6-1.2c-0.8-0.4-1.4-0.9-2-1.4s-1.2-1.1-1.7-1.8c-0.8,1.5-2.1,2.6-3.9,3.5s-3.8,1.5-6.2,1.9
				c-0.5,0.1-0.8,0-1-0.1c-0.2-0.2-0.4-0.4-0.4-0.7c0-0.4,0-0.7,0.2-0.8s0.5-0.2,1-0.3c1.3-0.2,2.4-0.5,3.4-0.7c1-0.3,1.8-0.6,2.6-1
				c0.7-0.4,1.3-0.8,1.8-1.2s0.9-1,1.1-1.5h-8.9L98.9,43.5L98.9,43.5z M100.4,35.8c-0.3,0-0.5-0.1-0.7-0.2c-0.1-0.1-0.2-0.4-0.2-0.7
				s0.1-0.6,0.2-0.7c0.1-0.2,0.3-0.2,0.7-0.2h7.7v-2h-8.7c-0.3,0-0.5-0.1-0.7-0.2c-0.1-0.2-0.2-0.4-0.2-0.7c0-0.3,0.1-0.6,0.2-0.7
				s0.3-0.2,0.7-0.2h4.8c-0.2-0.3-0.3-0.6-0.5-0.9s-0.3-0.5-0.5-0.7c-0.3-0.4-0.4-0.7-0.4-0.9c0-0.2,0.2-0.4,0.4-0.6
				c0.5-0.4,0.9-0.3,1.3,0.3c0.5,0.7,1,1.6,1.6,2.8h5.8c0.4-0.5,0.7-0.9,1-1.3s0.5-0.8,0.7-1.2c0.2-0.4,0.4-0.6,0.6-0.7
				s0.4-0.1,0.7,0c0.4,0.1,0.6,0.3,0.6,0.6c0,0.3-0.1,0.6-0.3,1c-0.2,0.3-0.4,0.6-0.5,0.9c-0.2,0.3-0.4,0.6-0.6,0.8h4.7
				c0.3,0,0.6,0.1,0.7,0.2s0.2,0.4,0.2,0.7c0,0.3-0.1,0.5-0.2,0.7c-0.1,0.2-0.4,0.2-0.7,0.2H110v2h7.8c0.3,0,0.6,0.1,0.7,0.2
				c0.1,0.2,0.2,0.4,0.2,0.7s-0.1,0.5-0.2,0.7c-0.1,0.1-0.4,0.2-0.7,0.2H110V38h9.4c0.4,0,0.6,0.1,0.7,0.2s0.2,0.4,0.2,0.7
				s-0.1,0.5-0.2,0.7s-0.3,0.2-0.7,0.2H98.7c-0.3,0-0.6-0.1-0.7-0.2c-0.1-0.2-0.2-0.4-0.2-0.7s0.1-0.5,0.2-0.7s0.4-0.2,0.7-0.2h9.4
				v-2.1L100.4,35.8L100.4,35.8z"/>
			<path class="st0" d="M132.1,44.8h-9.6c-0.4,0-0.6-0.1-0.8-0.2c-0.2-0.2-0.2-0.4-0.2-0.7c0-0.6,0.3-0.9,1-0.9h9.6v-1.6
				c0-0.8,0.3-1.1,1-1.1c0.6,0,1,0.4,1,1.1V43h9.5c0.7,0,1.1,0.3,1.1,0.9s-0.4,0.9-1.1,0.9h-9.5v4.3c0,0.4-0.1,0.7-0.2,0.8
				c-0.2,0.1-0.4,0.2-0.7,0.2s-0.6-0.1-0.7-0.2c-0.2-0.1-0.3-0.4-0.3-0.8v-4.3C132.2,44.8,132.1,44.8,132.1,44.8z M123.4,36.2
				c-0.3,0.3-0.6,0.4-0.9,0.4s-0.5-0.1-0.7-0.4c-0.2-0.3-0.2-0.6-0.1-0.8s0.3-0.5,0.6-0.7c0.7-0.6,1.3-1.1,1.8-1.7
				c0.5-0.5,1-1,1.5-1.6c0.4-0.5,0.9-1.1,1.2-1.7c0.4-0.6,0.8-1.2,1.1-1.9c0.2-0.3,0.4-0.6,0.6-0.7s0.5-0.2,0.8,0s0.5,0.4,0.5,0.6
				c0,0.3-0.1,0.5-0.3,0.9c-0.3,0.5-0.7,1.1-1,1.6c-0.4,0.5-0.7,1.1-1.1,1.6v8.4c0,0.3-0.1,0.6-0.2,0.8s-0.4,0.3-0.7,0.3
				c-0.4,0-0.6-0.1-0.8-0.3c-0.1-0.2-0.2-0.5-0.2-0.8v-6.1c-0.4,0.4-0.7,0.7-1.1,1.1C124.1,35.6,123.7,35.9,123.4,36.2z M135.1,37.8
				c0,0.3,0.1,0.5,0.2,0.6c0.1,0.1,0.3,0.2,0.7,0.3c0.7,0,1.4,0.1,2,0.1c0.7,0,1.3,0,2,0c0.5,0,0.9-0.1,1.2-0.1
				c0.3-0.1,0.5-0.2,0.7-0.5s0.3-0.6,0.3-1c0.1-0.4,0.1-1,0.1-1.7s0.3-1.1,1-1.1s1,0.4,1,1.1c0,1.1-0.1,2-0.2,2.6
				c-0.1,0.7-0.3,1.2-0.6,1.5s-0.7,0.6-1.2,0.7c-0.5,0.1-1.1,0.2-1.9,0.2c-0.7,0-1.4,0-2,0s-1.4,0-2.3,0c-1,0-1.8-0.3-2.2-0.7
				c-0.4-0.5-0.6-1.2-0.6-2.1v-2.1c-0.5,0.2-1.1,0.4-1.6,0.6c-0.5,0.2-1.1,0.3-1.6,0.5c-0.3,0.1-0.6,0.1-0.9,0.1
				c-0.3,0-0.5-0.2-0.6-0.6c-0.1-0.4,0-0.6,0.1-0.9s0.5-0.4,1-0.5c0.6-0.2,1.3-0.4,1.9-0.6c0.6-0.2,1.2-0.4,1.7-0.7v-5.6
				c0-0.8,0.3-1.1,1-1.1c0.6,0,0.9,0.4,0.9,1.1v4.7c1.1-0.5,2.1-1.1,3.1-1.8s1.9-1.4,2.9-2.2c0.3-0.3,0.6-0.4,0.8-0.5
				s0.4,0.1,0.7,0.3c0.2,0.3,0.3,0.5,0.3,0.8c-0.1,0.2-0.2,0.5-0.5,0.7c-0.9,0.8-2,1.6-3.2,2.4c-1.2,0.8-2.6,1.6-4,2.2v3.3
				C135.3,37.8,135.1,37.8,135.1,37.8z"/>
			<path class="st0" d="M167.2,47c0,1.1-0.2,1.8-0.7,2.2s-1.2,0.7-2.3,0.7c-0.5,0-1,0-1.5-0.1s-1.1-0.2-1.9-0.3
				c-0.4-0.1-0.7-0.2-0.8-0.4s-0.1-0.5-0.1-0.8c0.1-0.3,0.2-0.5,0.4-0.6s0.5-0.1,0.9,0c0.6,0.1,1.1,0.2,1.6,0.3
				c0.4,0.1,0.8,0.1,1.2,0.1c0.5,0,0.8-0.1,1-0.3s0.3-0.5,0.3-1v-16c0-0.2,0-0.4-0.1-0.5s-0.2-0.1-0.4-0.1H150c-0.3,0-0.5,0-0.5,0.1
				s-0.1,0.3-0.1,0.5v18.4c0,0.3-0.1,0.6-0.2,0.7c-0.2,0.1-0.4,0.2-0.7,0.2s-0.6-0.1-0.7-0.2c-0.2-0.1-0.2-0.4-0.2-0.7V30.6
				c0-0.4,0-0.8,0.1-1.1c0.1-0.3,0.2-0.5,0.4-0.7s0.4-0.3,0.7-0.3c0.3-0.1,0.7-0.1,1.2-0.1h15.1c0.4,0,0.8,0,1.1,0.1
				s0.5,0.2,0.7,0.3c0.2,0.2,0.3,0.4,0.3,0.7s0.1,0.7,0.1,1.1V47H167.2z M151.4,46.3c-0.3,0.4-0.5,0.7-0.8,0.8
				c-0.2,0.1-0.5,0-0.8-0.1c-0.5-0.3-0.5-0.9-0.1-1.6c0.6-0.9,1.2-1.9,1.7-3s1-2.2,1.4-3.3c-0.5-1-1-2-1.5-3s-1-1.9-1.4-2.7
				c-0.3-0.5-0.4-0.8-0.4-1.1s0.2-0.5,0.5-0.6c0.3-0.2,0.6-0.2,0.8-0.1s0.4,0.4,0.7,1c0.4,0.7,0.8,1.4,1.1,2.1
				c0.4,0.7,0.7,1.4,1.1,2.1c0.3-0.8,0.5-1.6,0.7-2.3c0.2-0.8,0.3-1.5,0.4-2.2c0.1-0.5,0.2-0.8,0.3-0.9c0.1-0.2,0.4-0.2,0.8-0.2
				c0.3,0,0.5,0.1,0.6,0.3c0.1,0.2,0.1,0.5,0,1c-0.4,2.3-1,4.6-1.8,6.7c0.4,0.9,0.8,1.7,1.1,2.5c0.4,0.8,0.7,1.7,1.1,2.6
				c0.2,0.4,0.2,0.7,0.2,1s-0.2,0.4-0.5,0.6c-0.3,0.1-0.6,0.1-0.8,0s-0.4-0.4-0.6-0.9c-0.2-0.5-0.4-1-0.6-1.6
				c-0.2-0.6-0.5-1.2-0.8-1.8C153.3,43,152.4,44.6,151.4,46.3z M164.3,32.3c-0.2,1.5-0.5,2.8-0.8,4.1s-0.7,2.4-1.1,3.5
				c0.4,0.9,0.8,1.7,1.1,2.6c0.4,0.9,0.7,1.7,1.1,2.6c0.2,0.5,0.3,0.8,0.2,1.1c0,0.3-0.2,0.4-0.5,0.6c-0.3,0.1-0.6,0.1-0.8,0
				s-0.4-0.5-0.6-1c-0.2-0.5-0.4-1.1-0.7-1.7c-0.3-0.6-0.5-1.2-0.8-1.9c-0.5,1-1,1.9-1.5,2.8s-1.2,1.8-1.9,2.6
				c-0.4,0.5-0.7,0.8-1,0.8c-0.3,0.1-0.5,0-0.8-0.3c-0.2-0.2-0.3-0.5-0.3-0.7s0.2-0.6,0.5-0.9c0.9-1,1.6-2,2.2-3.1
				c0.6-1.1,1.2-2.3,1.7-3.5c-0.5-1-1-2-1.5-3s-1-1.9-1.5-2.8c-0.2-0.4-0.3-0.7-0.3-0.9s0.2-0.5,0.5-0.7s0.5-0.2,0.7-0.1
				s0.5,0.4,0.7,0.8c0.8,1.4,1.5,2.9,2.2,4.3c0.5-1.7,0.9-3.6,1.2-5.5c0.1-0.4,0.2-0.8,0.3-1s0.4-0.3,0.8-0.2
				c0.4,0.1,0.6,0.2,0.7,0.4C164.4,31.4,164.4,31.8,164.3,32.3z"/>
			<path class="st0" d="M178.7,44.9c0.1,0.3,0.1,0.5,0,0.7s-0.3,0.4-0.7,0.5c-1.2,0.5-2.3,1-3.4,1.3c-1.1,0.4-2.2,0.7-3.3,1
				c-0.5,0.1-0.8,0.2-1,0.1s-0.4-0.3-0.5-0.7c-0.1-0.3-0.1-0.6,0.1-0.7s0.4-0.3,0.8-0.4c1.1-0.3,2.2-0.6,3.2-1
				c1.1-0.4,2.1-0.8,3.1-1.2C177.9,44.2,178.4,44.3,178.7,44.9z M178.3,32.7c-0.5,0.8-0.9,1.5-1.3,2.2c-0.4,0.7-0.9,1.4-1.3,2
				c-0.4,0.6-0.9,1.2-1.3,1.8s-0.9,1.2-1.4,1.7c-0.1,0.1-0.1,0.2-0.1,0.2s0.1,0,0.4,0c0.6-0.1,1.2-0.2,1.8-0.4s1.2-0.3,1.7-0.5
				c0.8-0.3,1.2-0.1,1.3,0.6c0.1,0.3,0,0.5-0.1,0.7s-0.4,0.3-0.7,0.4c-1,0.3-1.9,0.5-2.7,0.7s-1.7,0.3-2.4,0.4c-0.5,0-0.9,0-1.2-0.1
				s-0.5-0.3-0.6-0.5s-0.1-0.5-0.1-0.8c0.1-0.3,0.2-0.6,0.5-0.9c1.2-1.4,2.2-2.7,3-3.9l-2.1,0.1c-0.8,0-1.2-0.1-1.4-0.5
				s-0.1-0.9,0.4-1.6c0.3-0.4,0.6-0.9,0.9-1.5c0.3-0.5,0.6-1.1,0.9-1.6c0.3-0.6,0.6-1.1,0.9-1.7c0.3-0.6,0.6-1.1,0.8-1.6
				c0.2-0.4,0.4-0.7,0.6-0.8c0.2-0.1,0.4-0.1,0.7,0s0.5,0.3,0.5,0.6s0,0.5-0.2,1c-0.2,0.4-0.4,0.9-0.7,1.4s-0.5,1-0.8,1.5
				s-0.6,1-0.8,1.4c-0.3,0.5-0.5,0.9-0.7,1.2c-0.1,0.1-0.1,0.2-0.1,0.3s0.2,0.1,0.4,0l2.1-0.1c0.3-0.4,0.5-0.8,0.8-1.3
				c0.2-0.4,0.5-0.8,0.7-1.3s0.4-0.7,0.6-0.8c0.2-0.1,0.4-0.1,0.7,0c0.4,0.1,0.5,0.3,0.6,0.6C178.5,32.1,178.5,32.4,178.3,32.7z
				 M180.4,33.9c-0.4,0.5-0.7,0.7-0.9,0.8c-0.3,0.1-0.5,0-0.8-0.2c-0.2-0.2-0.3-0.4-0.3-0.7c0-0.2,0.2-0.5,0.6-1
				c0.6-0.7,1.1-1.5,1.6-2.2s0.9-1.6,1.2-2.6c0.2-0.5,0.4-0.8,0.6-1c0.2-0.2,0.5-0.2,0.8,0c0.3,0.1,0.5,0.3,0.6,0.6
				c0.1,0.2-0.1,0.7-0.3,1.3h5.7c2,0,2.5,1,1.5,2.9c-0.5,0.9-1,1.7-1.4,2.4c-0.5,0.7-1,1.3-1.5,1.9c0.6,0.5,1.2,0.9,1.9,1.3
				c0.7,0.4,1.4,0.8,2.3,1.1c0.5,0.2,0.8,0.5,1,0.7c0.1,0.2,0.1,0.5,0,0.9c-0.2,0.3-0.4,0.5-0.6,0.5s-0.6-0.1-1.2-0.3
				c-1.9-0.9-3.4-1.8-4.7-2.9c-0.9,0.6-1.8,1.2-2.8,1.7s-2.2,1-3.6,1.4c-0.5,0.2-0.8,0.2-1.1,0.2s-0.4-0.2-0.6-0.5
				c-0.2-0.7,0-1.1,0.8-1.4c1.2-0.4,2.3-0.8,3.2-1.2s1.8-0.9,2.6-1.5c-0.5-0.6-1.1-1.2-1.5-1.8c-0.5-0.7-0.9-1.4-1.4-2.2
				C181.4,32.5,181,33.2,180.4,33.9z M191,47.4c0,0.7-0.1,1.3-0.4,1.6c-0.3,0.3-0.8,0.5-1.5,0.5H182c-0.8,0-1.3-0.2-1.5-0.5
				s-0.4-0.9-0.4-1.6v-5.2c0-0.7,0.1-1.3,0.4-1.6s0.8-0.5,1.5-0.5h7.1c0.7,0,1.3,0.2,1.5,0.5c0.3,0.3,0.4,0.9,0.4,1.6V47.4z
				 M189.1,42.4c0-0.1,0-0.2-0.1-0.3s-0.1-0.1-0.2-0.1h-6.6c-0.2,0-0.3,0.1-0.3,0.4v4.8c0,0.3,0.1,0.5,0.3,0.5h6.6
				c0.2,0,0.3-0.2,0.3-0.5V42.4z M183.2,30.7c0.4,0.8,0.9,1.6,1.4,2.2c0.5,0.7,1,1.3,1.6,1.8c0.5-0.5,1-1,1.4-1.6s0.8-1.2,1.2-2
				c0.1-0.2,0.1-0.3,0.1-0.4s-0.1-0.1-0.2-0.1L183.2,30.7L183.2,30.7z"/>
			<path class="st0" d="M200.6,35.9L200.6,35.9c0.6,0.7,1.1,1.5,1.7,2.2c0.6,0.8,1.1,1.5,1.5,2.3c0.3,0.5,0.5,0.9,0.5,1.1
				c0,0.3-0.2,0.5-0.5,0.8c-0.2,0.1-0.5,0.2-0.7,0c-0.3-0.1-0.5-0.4-0.7-0.7c-0.3-0.5-0.5-0.9-0.8-1.4c-0.3-0.4-0.6-0.9-0.9-1.3
				v10.3c0,0.7-0.3,1-0.9,1c-0.6,0-0.9-0.3-0.9-1v-9.7c-0.4,0.8-0.8,1.6-1.3,2.3c-0.5,0.8-1,1.6-1.6,2.5c-0.2,0.3-0.5,0.5-0.7,0.6
				c-0.3,0.1-0.6,0.1-0.8-0.1c-0.3-0.2-0.4-0.4-0.4-0.7s0.1-0.5,0.3-0.8c0.8-1.2,1.6-2.3,2.3-3.5s1.3-2.5,1.9-4h-3.4
				c-0.3,0-0.5-0.1-0.7-0.3s-0.2-0.4-0.2-0.6c0-0.3,0.1-0.5,0.2-0.7c0.1-0.2,0.4-0.3,0.7-0.3h3.7v-3.4c-0.4,0.1-0.9,0.2-1.3,0.3
				c-0.4,0.1-0.9,0.2-1.3,0.2c-0.4,0.1-0.7,0.1-0.9,0c-0.2,0-0.4-0.3-0.5-0.7c-0.2-0.6,0.2-1,1.1-1.1c0.5-0.1,1.1-0.2,1.8-0.3
				c0.6-0.1,1.3-0.3,1.9-0.4c0.6-0.2,1.2-0.3,1.8-0.5c0.5-0.2,1-0.3,1.3-0.5c0.4-0.2,0.7-0.2,0.9-0.2s0.5,0.2,0.6,0.5s0.1,0.6,0,0.8
				c-0.1,0.2-0.4,0.4-0.8,0.5c-0.5,0.2-1,0.3-1.4,0.4s-0.9,0.3-1.3,0.4v3.8h2.6c0.3,0,0.6,0.1,0.8,0.3s0.3,0.4,0.3,0.7
				s-0.1,0.5-0.3,0.6c-0.2,0.2-0.4,0.3-0.7,0.3h-2.9L200.6,35.9L200.6,35.9z M204.2,45.3c-0.5,0.1-0.8,0.1-1.1,0
				c-0.2-0.1-0.4-0.3-0.4-0.7s0-0.6,0.2-0.8s0.5-0.3,1.1-0.3c1.3-0.2,2.7-0.4,4.1-0.6c1.4-0.2,2.8-0.4,4.2-0.6V27.8
				c0-0.4,0.1-0.6,0.3-0.7s0.4-0.1,0.7-0.1s0.5,0,0.6,0.1c0.2,0.1,0.3,0.3,0.3,0.7V42c0.3,0,0.5-0.1,0.8-0.1s0.5-0.1,0.8-0.1
				c0.5-0.1,0.8,0,1,0.1s0.4,0.3,0.4,0.7c0,0.3,0,0.6-0.2,0.7c-0.2,0.1-0.5,0.3-1,0.3l-1.9,0.3v5.5c0,0.3-0.1,0.6-0.3,0.7
				c-0.2,0.1-0.4,0.2-0.6,0.2c-0.3,0-0.5-0.1-0.7-0.2c-0.2-0.1-0.3-0.3-0.3-0.7v-5.3L204.2,45.3z M210.6,39.3c0.4,0.5,0.5,0.9,0,1.3
				c-0.2,0.2-0.5,0.3-0.7,0.3s-0.5-0.2-0.7-0.4c-0.4-0.4-0.7-0.8-1-1.1s-0.6-0.7-1-1c-0.3-0.3-0.6-0.6-1-0.9c-0.3-0.3-0.7-0.6-1.1-1
				c-0.2-0.1-0.3-0.3-0.4-0.6c-0.1-0.2,0-0.5,0.2-0.7c0.5-0.5,0.9-0.5,1.5-0.1c0.4,0.4,0.8,0.7,1.2,1c0.3,0.3,0.7,0.6,1,0.9
				c0.3,0.3,0.7,0.6,1,1S210.2,38.9,210.6,39.3z M211,34.1c-0.3,0.2-0.5,0.3-0.7,0.2s-0.5-0.3-0.8-0.6c-0.5-0.5-1-1-1.5-1.5
				s-1.1-0.9-1.7-1.4c-0.3-0.3-0.5-0.5-0.6-0.7s0-0.5,0.2-0.7c0.4-0.5,0.9-0.5,1.5,0c0.4,0.3,0.7,0.6,1.1,0.9
				c0.3,0.3,0.6,0.5,0.9,0.8c0.3,0.3,0.6,0.5,0.9,0.8c0.3,0.3,0.6,0.6,0.9,0.9c0.2,0.2,0.3,0.4,0.3,0.7
				C211.3,33.7,211.2,33.9,211,34.1z"/>
			<path class="st0" d="M221.3,41.1c-0.6,0.3-1.2,0.6-1.8,0.9c-0.3,0.1-0.6,0.2-0.8,0.2s-0.4-0.1-0.5-0.4c-0.1-0.4-0.2-0.7-0.1-0.9
				c0.1-0.2,0.4-0.4,0.8-0.6s0.8-0.4,1.2-0.6c0.4-0.2,0.8-0.4,1.2-0.6v-5.8h-2.1c-0.7,0-1.1-0.3-1.1-0.9c0-0.3,0.1-0.5,0.3-0.7
				c0.2-0.1,0.5-0.2,0.8-0.2h2.1V28c0-0.3,0.1-0.6,0.2-0.7c0.2-0.2,0.4-0.2,0.6-0.2c0.6,0,0.9,0.3,0.9,1v3.5h1.5
				c0.3,0,0.6,0.1,0.8,0.2s0.3,0.4,0.3,0.7s-0.1,0.5-0.3,0.7s-0.5,0.2-0.8,0.2H223V38c0.2-0.1,0.3-0.3,0.5-0.4
				c0.2-0.1,0.3-0.3,0.5-0.4c0.3-0.3,0.6-0.4,0.9-0.4c0.3,0,0.5,0.1,0.7,0.3c0.2,0.3,0.3,0.5,0.2,0.7s-0.3,0.5-0.6,0.7
				c-0.4,0.3-0.7,0.6-1.1,0.9c-0.4,0.3-0.7,0.5-1.1,0.8v7.4c0,0.8-0.1,1.4-0.4,1.7c-0.3,0.3-0.8,0.5-1.5,0.5c-0.3,0-0.6,0-1-0.1
				s-0.8-0.2-1.2-0.3c-0.3-0.1-0.5-0.2-0.6-0.5c-0.1-0.2-0.1-0.5,0-0.8c0.2-0.5,0.6-0.7,1.2-0.5c0.2,0.1,0.3,0.1,0.5,0.2
				s0.3,0.1,0.5,0.1s0.4,0,0.5,0s0.1-0.2,0.1-0.5v-6.3C221.1,41.1,221.3,41.1,221.3,41.1z M226.2,49.6c-0.6,0.2-1,0.3-1.3,0.3
				s-0.4-0.3-0.5-0.6s-0.1-0.6,0.1-0.8c0.1-0.2,0.5-0.4,1-0.6c2.4-0.8,4.4-1.8,6.1-2.9c-0.9-1-1.7-2-2.4-3.2s-1.3-2.5-1.9-4
				c-0.5-0.1-0.8-0.4-0.8-0.9c0-0.6,0.3-0.9,1-0.9h4.7v-3.5H227c-0.3,0-0.6-0.1-0.7-0.3c-0.2-0.2-0.2-0.4-0.2-0.6
				c0-0.6,0.3-0.9,1-0.9h5.2V28c0-0.4,0.1-0.6,0.3-0.8c0.2-0.2,0.4-0.2,0.7-0.2c0.6,0,0.9,0.3,0.9,1v2.6h5.8c0.3,0,0.5,0.1,0.7,0.2
				c0.1,0.2,0.2,0.4,0.2,0.7c0,0.3-0.1,0.5-0.2,0.6c-0.1,0.2-0.4,0.3-0.7,0.3h-6V36h3.7c0.5,0,1,0.1,1.3,0.3s0.5,0.6,0.5,1.1
				c0,0.4-0.2,1-0.5,1.8c-0.6,1.2-1.2,2.3-2,3.2c-0.8,1-1.6,1.8-2.6,2.7c0.8,0.6,1.7,1.2,2.6,1.6c0.9,0.5,2,0.9,3.1,1.3
				c0.4,0.1,0.7,0.3,0.9,0.5s0.2,0.5,0,0.8c-0.1,0.4-0.3,0.6-0.6,0.6c-0.2,0-0.7,0-1.2-0.3c-2.6-1-4.7-2.1-6.4-3.5
				c-1,0.7-2,1.3-3.1,1.8C228.7,48.6,227.4,49.2,226.2,49.6z M229.1,37.8c0.5,1.2,1.1,2.4,1.7,3.4c0.6,1,1.4,1.9,2.2,2.7
				c0.9-0.7,1.7-1.5,2.4-2.4s1.3-1.9,1.9-2.9c0.3-0.5,0-0.8-0.7-0.8H229.1z"/>
			<path class="st0" d="M243.8,30.8c-0.3,0-0.6-0.1-0.7-0.2c-0.2-0.1-0.3-0.4-0.3-0.7c0-0.6,0.3-0.9,0.9-0.9h19.5c0.7,0,1,0.3,1,0.9
				c0,0.3-0.1,0.6-0.2,0.7s-0.4,0.2-0.7,0.2h-3.6v7.4h4.6c0.3,0,0.6,0.1,0.7,0.2s0.2,0.4,0.2,0.6c0,0.3-0.1,0.5-0.2,0.6
				c-0.1,0.2-0.3,0.2-0.7,0.2h-4.7v9.4c0,0.3-0.1,0.6-0.3,0.7c-0.2,0.1-0.4,0.2-0.7,0.2c-0.3,0-0.5-0.1-0.7-0.2s-0.3-0.4-0.3-0.7
				v-9.4h-8.7c0,1.3-0.2,2.4-0.4,3.4s-0.5,1.8-0.9,2.5s-0.9,1.4-1.5,2s-1.3,1.2-2.2,1.8c-0.7,0.5-1.2,0.5-1.5,0
				c-0.2-0.3-0.3-0.5-0.2-0.8s0.3-0.5,0.6-0.7l0,0c0.8-0.5,1.4-1,2-1.5s1-1.1,1.3-1.7c0.3-0.6,0.5-1.3,0.7-2.1
				c0.1-0.8,0.2-1.8,0.3-2.9h-4.5c-0.3,0-0.6-0.1-0.7-0.2c-0.1-0.2-0.2-0.4-0.2-0.7s0.1-0.5,0.2-0.6c0.1-0.2,0.4-0.2,0.7-0.2h4.5
				v-7.4h-3.3V30.8z M249.3,38.2h8.7v-7.4h-8.7V38.2z"/>
			<path class="st0" d="M268.2,47.9c-0.6,0.7-1.1,0.8-1.6,0.3c-0.5-0.4-0.4-1,0.2-1.6c1-1,1.8-2,2.6-3c0.8-1,1.5-1.9,2.1-2.9
				s1.2-1.9,1.7-2.9s0.9-2,1.3-3h-4.3c-1,0-1.6-0.2-1.8-0.6c-0.2-0.4-0.2-1,0.2-1.9c0.3-0.7,0.5-1.3,0.7-1.9c0.2-0.5,0.3-1,0.4-1.6
				c0.1-0.4,0.2-0.7,0.4-0.8c0.2-0.1,0.4-0.2,0.7-0.2c0.3,0,0.6,0.1,0.7,0.3c0.1,0.2,0.1,0.5,0,0.8c-0.1,0.5-0.3,1.1-0.5,1.7
				s-0.4,1.2-0.5,1.7c-0.1,0.2-0.1,0.3-0.1,0.4c0,0.1,0.1,0.1,0.3,0.1h4.4c0.3-0.8,0.5-1.6,0.7-2.4s0.4-1.7,0.6-2.6
				c0.1-0.5,0.2-0.9,0.4-1c0.2-0.2,0.4-0.3,0.8-0.2c0.4,0,0.6,0.2,0.7,0.4s0.1,0.6,0,1c-0.2,0.9-0.3,1.7-0.5,2.5s-0.4,1.6-0.6,2.3
				h10.5c0.4,0,0.6,0.1,0.8,0.2c0.1,0.2,0.2,0.4,0.2,0.7s-0.1,0.5-0.2,0.7s-0.4,0.2-0.8,0.2h-11.1c-0.1,0.4-0.3,0.8-0.4,1.2
				s-0.3,0.8-0.5,1.1h8.9c0.5,0,0.9,0.1,1.3,0.3s0.5,0.4,0.7,0.7c0.1,0.3,0.1,0.6,0.1,1c-0.1,0.4-0.2,0.7-0.5,1.1
				c-0.6,0.9-1.3,1.8-1.9,2.6s-1.4,1.5-2.2,2.2c1,0.6,2.1,1.2,3.1,1.7c1.1,0.5,2.1,0.9,3.2,1.2c0.5,0.1,0.8,0.3,1,0.6
				c0.1,0.2,0.2,0.5,0.1,0.9c-0.1,0.3-0.2,0.5-0.4,0.6c-0.2,0.1-0.5,0-0.9,0c-2.7-0.8-5.3-2-7.7-3.6c-1.3,0.9-2.8,1.6-4.4,2.2
				c-1.6,0.6-3.6,1.2-5.8,1.6c-0.5,0.1-0.8,0.1-1,0s-0.3-0.3-0.4-0.7s0-0.6,0.2-0.8s0.5-0.3,0.9-0.4c1.8-0.4,3.5-0.8,4.9-1.3
				s2.8-1.1,3.9-1.9c-0.9-0.7-1.7-1.4-2.5-2.1c-0.8-0.7-1.5-1.5-2.2-2.3c-0.7,1.2-1.6,2.4-2.5,3.7C270.4,45.4,269.4,46.6,268.2,47.9
				z M275,39c0.7,0.9,1.5,1.7,2.4,2.5s1.8,1.6,2.7,2.3c1.5-1.2,2.8-2.6,4-4.3c0.1-0.2,0.2-0.3,0.1-0.4S284,39,283.8,39H275z
				 M286.5,32.7c-0.2,0.2-0.4,0.2-0.7,0.2s-0.5-0.2-0.7-0.5c-0.5-0.6-1-1.1-1.5-1.7c-0.5-0.5-1.1-1.1-1.8-1.7
				c-0.3-0.3-0.5-0.5-0.5-0.7s0.1-0.4,0.3-0.7c0.2-0.2,0.4-0.3,0.6-0.3s0.5,0.1,0.8,0.4c0.7,0.6,1.3,1.2,1.9,1.7s1.1,1.2,1.6,1.7
				C287,31.8,287,32.3,286.5,32.7z"/>
		</g>
	</g>
</g>
<g>
	<path class="st0" d="M48.5,3.6l-0.9,0.5l0,0l-13.2,7.7l0,0l-8.8,5.1l0,0l-15.4,8.9l-1,0.5c-0.8,0.5-1.2,1.3-1.3,2.2v18.7
		c0.1,0.9,0.5,1.7,1.3,2.2l7.2,4.1V32.5l9.2-5.2v31.5l8.8,5.4v-42l8.4-4.8v51.6l5.7,3.2c1.2,0.7,2.8,0.3,3.5-0.9
		c0.2-0.4,0.3-0.8,0.3-1.3V5.8c0-1.4-1.1-2.6-2.6-2.6C49.3,3.3,48.9,3.4,48.5,3.6z"/>
	<path class="st0" d="M64.4,6.7l-5.7-3.2c-1.2-0.7-2.8-0.3-3.5,0.9c-0.2,0.4-0.3,0.8-0.3,1.2v18.1l9.5,5.5L64.4,6.7z"/>
	<path class="st0" d="M80.4,16.1l-7.6-4.4v25.6l-18-10.5v43.1c0,1.4,1.1,2.6,2.6,2.6c0.4,0,0.9-0.1,1.3-0.3l5.7-3.2V42.3l8.4,4.9
		v16.9l7.7-4.7c0.8-0.5,1.2-1.3,1.2-2.2V18.3C81.7,17.4,81.2,16.5,80.4,16.1z"/>
</g>
</svg>
