<?xml version="1.0" encoding="utf-8"?>
<!-- Generator: Adobe Illustrator 24.1.0, SVG Export Plug-In . SVG Version: 6.00 Build 0)  -->
<svg version="1.1" id="Layer_1" xmlns="http://www.w3.org/2000/svg" xmlns:xlink="http://www.w3.org/1999/xlink" x="0px" y="0px"
	 viewBox="0 0 127 100" style="enable-background:new 0 0 127 100;" xml:space="preserve">
<style type="text/css">
	.st0{fill:#FFFFFF;}
</style>
<image style="overflow:visible;opacity:0.5;enable-background:new    ;" width="107" height="101" xlink:href="230113932BB4B582.png"  transform="matrix(1 0 0 1 8.25 -0.25)">
</image>
<path class="st0" d="M64.8,3.6l-1.2,0.7l0,0l-17.2,10l0,0L34.8,21l0,0L14.6,32.6l-1.3,0.7c-1,0.6-1.6,1.7-1.7,2.9v24.4
	c0.1,1.2,0.7,2.3,1.7,2.9l9.5,5.4V41.3l12-6.8v41.2l11.6,7.1V27.9l11-6.3v67.4l7.4,4.2c1.6,0.9,3.6,0.4,4.6-1.2
	c0.3-0.5,0.4-1.1,0.4-1.7V6.5c0-1.8-1.5-3.3-3.3-3.3C65.9,3.2,65.3,3.3,64.8,3.6z"/>
<path class="st0" d="M85.6,7.7l-7.4-4.1c-1.6-0.9-3.6-0.4-4.6,1.2c-0.3,0.5-0.4,1-0.4,1.5V30l12.4,7.2L85.6,7.7z"/>
<path class="st0" d="M106.5,19.9l-9.9-5.7v33.5L73.2,33.9v56.3c0,1.8,1.5,3.3,3.3,3.3c0.6,0,1.2-0.2,1.7-0.4l7.4-4.2V54.1l11,6.3
	v22.1l10-6.1c1-0.6,1.6-1.7,1.6-2.8V22.8C108.2,21.6,107.5,20.5,106.5,19.9z"/>
</svg>
