<?xml version="1.0" encoding="utf-8"?>
<!-- Generator: Adobe Illustrator 16.0.0, SVG Export Plug-In . SVG Version: 6.00 Build 0)  -->
<!DOCTYPE svg PUBLIC "-//W3C//DTD SVG 1.1//EN" "http://www.w3.org/Graphics/SVG/1.1/DTD/svg11.dtd">
<svg version="1.1" id="Layer_1" xmlns="http://www.w3.org/2000/svg" xmlns:xlink="http://www.w3.org/1999/xlink" x="0px" y="0px"
	 width="45px" height="45px" viewBox="0 0 45 45" enable-background="new 0 0 45 45" xml:space="preserve">
<g>
	<g opacity="0.15">
		<path d="M42.562,19.781h-7.512c-2.242-11-6.128-16.757-10.553-16.757c-4.424,0-8.309,5.757-10.551,16.757H4.562v2h9.011
			c-0.989,4-1.578,10-1.644,15h2.307c0.051-5,0.67-11,1.695-15h17.133c1.024,4,1.646,10,1.698,15h2.305c-0.066-5-0.656-11-1.646-15
			h7.14V19.781z M16.3,19.781c1.873-9,4.848-14.833,8.198-14.833c3.352,0,6.326,5.833,8.199,14.833H16.3z"/>
		<path d="M41.812,29.84c-2.083,0.753-2.29,1.659-3.122,3.773c-0.894,2.266,1.058,5.887,1.058,5.887l-15.121-0.905L9.447,39.5
			c0,0,1.671-3.621,0.779-5.887C9.392,31.5,8.558,30.593,6.477,29.84c-1.154-0.418-2.915-0.304-2.915-0.304v3.624
			c0,0,1.597-0.604,3.262,0.302c1.666,0.905,1.228,5.001,0.55,6.342c-0.917,1.811-2.474,1.811-1.475,3.32
			c1.056,1.594,13.069-0.906,17.774-0.906c4.707,0,18.828,2.5,19.883,0.906c0.999-1.51-0.582-1.51-1.5-3.32
			c-0.676-1.341-2.244-5.437-0.581-6.342c1.664-0.905,2.087-0.302,2.087-0.302v-3.624C43.562,29.537,42.967,29.422,41.812,29.84z"/>
	</g>
	<g>
		<g>
			<path fill="#FFFFFF" d="M41.562,18.781h-7.512c-2.242-11-6.128-16.757-10.553-16.757c-4.424,0-8.309,5.757-10.551,16.757H3.562v2
				h9.011c-0.989,4-1.578,10-1.644,15h2.307c0.051-5,0.67-11,1.695-15h17.133c1.024,4,1.646,10,1.698,15h2.305
				c-0.066-5-0.656-11-1.646-15h7.14V18.781z M15.3,18.781c1.873-9,4.848-14.833,8.198-14.833c3.352,0,6.326,5.833,8.199,14.833
				H15.3z"/>
			<path fill="#FFFFFF" d="M40.812,28.84c-2.083,0.753-2.29,1.659-3.122,3.773c-0.894,2.266,1.058,5.887,1.058,5.887l-15.121-0.905
				L8.447,38.5c0,0,1.671-3.621,0.779-5.887C8.392,30.5,7.558,29.593,5.477,28.84c-1.154-0.418-2.915-0.304-2.915-0.304v3.624
				c0,0,1.597-0.604,3.262,0.302c1.666,0.905,1.228,5.001,0.55,6.342c-0.917,1.811-2.474,1.811-1.475,3.32
				c1.056,1.594,13.069-0.906,17.774-0.906c4.707,0,18.828,2.5,19.883,0.906c0.999-1.51-0.582-1.51-1.5-3.32
				c-0.676-1.341-2.244-5.437-0.581-6.342c1.664-0.905,2.087-0.302,2.087-0.302v-3.624C42.562,28.537,41.967,28.422,40.812,28.84z"
				/>
		</g>
	</g>
</g>
</svg>
